<?xml version="1.0" encoding="utf-8"?>
<!-- Generator: Adobe Illustrator 21.1.0, SVG Export Plug-In . SVG Version: 6.00 Build 0)  -->
<svg version="1.1" id="Capa_1" xmlns="http://www.w3.org/2000/svg" xmlns:xlink="http://www.w3.org/1999/xlink" x="0px" y="0px"
	 viewBox="0 0 150 150" style="enable-background:new 0 0 150 150;" xml:space="preserve">
<style type="text/css">
	.st0{fill-rule:evenodd;clip-rule:evenodd;fill:#333333;}
	.st1{fill-rule:evenodd;clip-rule:evenodd;fill:#80BD01;}
	.st2{fill:#80BD01;}
	.st3{fill:#EB7077;stroke:#EB7077;stroke-width:9.375000e-02;}
	.st4{fill:#F6A2AD;stroke:#F6A2AD;stroke-width:9.375000e-02;}
	.st5{fill:#3563A3;}
	.st6{fill:#393832;}
	.st7{fill:#F5DE19;}
	.st8{fill:#D34A47;}
	.st9{fill:#FFFFFF;}
	.st10{fill-rule:evenodd;clip-rule:evenodd;fill:#1D1C15;}
	.st11{fill:#395DA1;}
	.st12{fill:#729CCF;}
	.st13{fill:#211915;}
	.st14{fill:url(#SVGID_1_);}
	.st15{fill:url(#SVGID_2_);}
	.st16{fill:url(#SVGID_3_);}
	.st17{opacity:5.000000e-02;}
	.st18{fill:url(#SVGID_4_);}
	.st19{opacity:5.000000e-02;fill:#211915;}
	.st20{fill:#CC6699;}
	.st21{fill:#E34E26;}
	.st22{fill:#EF662A;}
	.st23{fill:#EBEBEB;}
</style>
<g>
	<polygon class="st11" points="118.5,138.3 75,150 31.5,138.3 21.5,29.5 128.5,29.5 	"/>
	<polygon class="st12" points="75,38.3 75,140.7 75.1,140.7 110.3,131.2 118.4,38.3 	"/>
	<g>
		<polygon class="st13" points="50.3,13.6 50.3,7.1 59.8,7.1 59.8,0 43.2,0 43.2,20 59.8,20 59.8,13.6 		"/>
		<path class="st13" d="M76.7,7.1h6.6V0H66.8c0,0,0,3.6,0,7.1c2.2,2.2,3.4,3.3,6.6,6.5c-1.9,0-6.6,0-6.6,0V20h16.5v-6.5L76.7,7.1z"
			/>
		<path class="st13" d="M100.2,7.1h6.6V0H90.2c0,0,0,3.6,0,7.1c2.2,2.2,3.4,3.3,6.6,6.5c-1.9,0-6.6,0-6.6,0V20h16.5v-6.5L100.2,7.1z
			"/>
	</g>
	<g>
		<polygon class="st9" points="75,65.5 43.8,78.5 44.9,91.3 75,78.5 107,64.8 108.3,51.6 		"/>
		<linearGradient id="SVGID_1_" gradientUnits="userSpaceOnUse" x1="59.3927" y1="91.3407" x2="59.3927" y2="65.5353">
			<stop  offset="0.3865" style="stop-color:#D7D8DC;stop-opacity:0"/>
			<stop  offset="1" style="stop-color:#D7D8DC"/>
		</linearGradient>
		<polygon class="st14" points="43.8,78.5 44.9,91.3 75,78.5 75,65.5 		"/>
		<linearGradient id="SVGID_2_" gradientUnits="userSpaceOnUse" x1="91.6351" y1="78.4699" x2="91.6351" y2="51.6465">
			<stop  offset="0.3865" style="stop-color:#D7D8DC;stop-opacity:0"/>
			<stop  offset="1" style="stop-color:#D7D8DC"/>
		</linearGradient>
		<polygon class="st15" points="108.3,51.6 75,65.5 75,78.5 107,64.8 		"/>
		<linearGradient id="SVGID_3_" gradientUnits="userSpaceOnUse" x1="43.8728" y1="102.8504" x2="105.8507" y2="102.8504">
			<stop  offset="0" style="stop-color:#EFF0EE"/>
			<stop  offset="1" style="stop-color:#FFFFFF"/>
		</linearGradient>
		<polygon class="st16" points="43.9,78.5 44.9,91.3 91.1,91.5 90.1,108.6 74.9,112.9 60.3,109.2 59.4,98.6 45.8,98.6 47.6,119.1 
			75,127.2 102.3,119.2 105.9,78.5 		"/>
		<g class="st17">
			<polygon class="st13" points="75,78.5 43.8,78.5 44.9,91.3 75,91.4 			"/>
			<polygon class="st13" points="75,112.8 74.8,112.9 60.2,109.2 59.3,98.6 45.7,98.6 47.5,119.1 75,127.2 			"/>
		</g>
		<linearGradient id="SVGID_4_" gradientUnits="userSpaceOnUse" x1="41.0213" y1="58.2129" x2="108.3096" y2="58.2129">
			<stop  offset="0" style="stop-color:#EFF0EE"/>
			<stop  offset="1" style="stop-color:#FFFFFF"/>
		</linearGradient>
		<polygon class="st18" points="41,51.6 108.3,51.6 107,64.8 42.6,64.8 		"/>
		<polygon class="st19" points="75,51.6 41,51.6 42.6,64.8 75,64.8 		"/>
	</g>
</g>
</svg>
