<?xml version="1.0" encoding="utf-8"?>
<!-- Generator: Adobe Illustrator 21.1.0, SVG Export Plug-In . SVG Version: 6.00 Build 0)  -->
<svg version="1.1" id="Capa_1" xmlns="http://www.w3.org/2000/svg" xmlns:xlink="http://www.w3.org/1999/xlink" x="0px" y="0px"
	 viewBox="0 0 150 150" style="enable-background:new 0 0 150 150;" xml:space="preserve">
<style type="text/css">
	.st0{fill-rule:evenodd;clip-rule:evenodd;fill:#333333;}
	.st1{fill-rule:evenodd;clip-rule:evenodd;fill:#80BD01;}
	.st2{fill:#80BD01;}
	.st3{fill:#EB7077;stroke:#EB7077;stroke-width:9.375000e-02;}
	.st4{fill:#F6A2AD;stroke:#F6A2AD;stroke-width:9.375000e-02;}
	.st5{fill:#3563A3;}
	.st6{fill:#393832;}
	.st7{fill:#F5DE19;}
	.st8{fill:#D34A47;}
	.st9{fill:#FFFFFF;}
	.st10{fill-rule:evenodd;clip-rule:evenodd;fill:#1D1C15;}
	.st11{fill:#395DA1;}
	.st12{fill:#729CCF;}
	.st13{fill:#211915;}
	.st14{fill:url(#SVGID_1_);}
	.st15{fill:url(#SVGID_2_);}
	.st16{fill:url(#SVGID_3_);}
	.st17{opacity:5.000000e-02;}
	.st18{fill:url(#SVGID_4_);}
	.st19{opacity:5.000000e-02;fill:#211915;}
	.st20{fill:#CC6699;}
	.st21{fill:#E34E26;}
	.st22{fill:#EF662A;}
	.st23{fill:#EBEBEB;}
</style>
<path class="st10" d="M75,1.9c-41.4,0-75,33.6-75,75C0,110,21.5,138.1,51.3,148c3.8,0.7,5.1-1.6,5.1-3.6c0-1.8-0.1-6.5-0.1-12.8
	C35.4,136.2,31,121.6,31,121.6c-3.4-8.7-8.3-11-8.3-11c-6.8-4.7,0.5-4.6,0.5-4.6c7.5,0.5,11.5,7.7,11.5,7.7
	c6.7,11.5,17.6,8.2,21.8,6.2c0.7-4.8,2.6-8.2,4.8-10c-16.7-1.9-34.2-8.3-34.2-37.1c0-8.2,2.9-14.9,7.7-20.1
	c-0.8-1.9-3.3-9.5,0.7-19.8c0,0,6.3-2,20.6,7.7c6-1.7,12.4-2.5,18.8-2.5c6.4,0,12.8,0.9,18.8,2.5c14.3-9.7,20.6-7.7,20.6-7.7
	c4.1,10.3,1.5,18,0.7,19.8c4.8,5.2,7.7,11.9,7.7,20.1c0,28.8-17.5,35.2-34.2,37c2.7,2.3,5.1,6.9,5.1,13.9c0,10-0.1,18.1-0.1,20.6
	c0,2,1.4,4.3,5.2,3.6c29.8-9.9,51.2-38,51.2-71.2C150,35.4,116.4,1.9,75,1.9z"/>
</svg>
