<?xml version="1.0" encoding="utf-8"?>
<!-- Generator: Adobe Illustrator 21.1.0, SVG Export Plug-In . SVG Version: 6.00 Build 0)  -->
<svg version="1.1" id="Capa_1" xmlns="http://www.w3.org/2000/svg" xmlns:xlink="http://www.w3.org/1999/xlink" x="0px" y="0px"
	 viewBox="0 0 150 150" style="enable-background:new 0 0 150 150;" xml:space="preserve">
<style type="text/css">
	.st0{fill-rule:evenodd;clip-rule:evenodd;fill:#333333;}
	.st1{fill-rule:evenodd;clip-rule:evenodd;fill:#80BD01;}
	.st2{fill:#80BD01;}
	.st3{fill:#EB7077;stroke:#EB7077;stroke-width:9.375000e-02;}
	.st4{fill:#F6A2AD;stroke:#F6A2AD;stroke-width:9.375000e-02;}
	.st5{fill:#3563A3;}
	.st6{fill:#393832;}
	.st7{fill:#F5DE19;}
	.st8{fill:#D34A47;}
	.st9{fill:#FFFFFF;}
	.st10{fill-rule:evenodd;clip-rule:evenodd;fill:#1D1C15;}
	.st11{fill:#395DA1;}
	.st12{fill:#729CCF;}
	.st13{fill:#211915;}
	.st14{fill:url(#SVGID_1_);}
	.st15{fill:url(#SVGID_2_);}
	.st16{fill:url(#SVGID_3_);}
	.st17{opacity:5.000000e-02;}
	.st18{fill:url(#SVGID_4_);}
	.st19{opacity:5.000000e-02;fill:#211915;}
	.st20{fill:#CC6699;}
	.st21{fill:#E34E26;}
	.st22{fill:#EF662A;}
	.st23{fill:#EBEBEB;}
</style>
<path class="st8" d="M93.4,145.5l1.4-24l4-6.8c0,0-9.1,3.7-24.2,3.7c-15.2,0-24.1-3.6-24.1-3.6l4.5,7.4l1.6,23.3
	c0,2.5,8.2,4.5,18.4,4.5C85.1,150,93.4,148,93.4,145.5"/>
<path class="st8" d="M88.8,33.3l3-12l16.7-17.6L104.2,0L86.4,18.8l-3.5,14.3c-2.5-0.1-5.2-0.1-7.9-0.1c-18.7,0-33.8,2.1-33.8,4.8
	c0,2.6,15.1,4.8,33.8,4.8c18.7,0,33.8-2.1,33.8-4.8C108.8,35.7,100.6,34.1,88.8,33.3"/>
<path class="st9" d="M87.1,40c0,0-0.7,0.1-2.6,0.2c-1.9,0-3.3,0-3.8-0.5c-0.1-0.1-0.2-0.4-0.2-0.6c0-0.3,0.2-0.5,0.6-0.7l0.3,0.5
	c-0.1,0-0.2,0.1-0.2,0.2c0,0.3,2,0.4,3.5,0.4c1.5,0,3.3-0.1,3.3-0.4c0-0.1-0.1-0.2-0.4-0.2l0.3-0.5c0.4,0.1,0.7,0.4,0.7,0.8
	C88.5,39.9,87.6,40,87.1,40"/>
<path class="st8" d="M92.6,86.8c-0.4-3.8,8.4-9.4,6.1-9.5c-4.8,0.3-7.2,5.7-9.7,11.3c-0.9,2.1-3.9,10.9-5.9,9.8
	c-2-1.1,2.6-8.3,3.9-12.6c-1.5,1.1-6.9,5.3-8.3,1.4c-2.3,1.9-7.1,3-6.5-2.1c-1.2,2.1-3.9,5.1-7.1,3.9c-4.2-1.6,2.5-15.2,4.1-14.5
	c1.7,0.7-0.3,3.8-0.9,5C67,82,65.7,85.3,66.6,86c1.5,1.2,5.7-4.4,5.8-4.5c0.8-1,3-7.7,4.8-7c1.8,0.8-4.5,9.6-2.1,11.4
	c0.5,0.4,2.4-0.2,3.6-1.5c0.8-0.8,0.5-2.6,3-8.7c2.5-6,4.8-13.5,6.5-12.9c1.7,0.6,0.3,4.4-0.3,5.9c-2.9,6.7-8,17.9-5.6,17
	c2.4-0.8,3.6-0.9,5.9-3.6c2.3-2.7,2.2-7.2,3.8-7.1c1.6,0.1,1.3,1.5,0.9,2.6c1.5-1.7,7.2-5.4,8.6-1.8c1.6,4.3-8.2,10.5-5.7,10.2
	c2.4-0.3,6.2-2.8,7.9-5l4.5-40.8c0,0-4.6,3.8-33.6,3.8c-29,0-33.1-3.7-33.1-3.7l3.9,37.2c2.1-5.8,6.9-17.6,14.6-17.2
	c3.5,0.2,8.2,6.9,4.2,7.1c-1.7,0.1-1.9-3.4-3.9-3.9c-1.4-0.4-3.5,0.8-4.8,2.1c-2.6,2.5-8.2,12.5-7.4,17.5c0.9,6.4,8.8-2.2,10.1-4.8
	c0.9-1.8,1.6-7.1,3.6-6.5c2,0.6-0.2,6-1.7,10.9c-1.7,5.4-2.5,11.2-4.6,10.5c-2.1-0.7,1.3-7.7,1.2-8.9c-2,1.8-5.6,6.4-10.2,4.1
	l2.4,23.1c0,0,6.4,5,25.6,5s25.8-5,25.8-5l3-26.8C100.8,87.4,93.1,91.6,92.6,86.8"/>
</svg>
