<?xml version="1.0" encoding="utf-8"?>
<!-- Generator: Adobe Illustrator 21.1.0, SVG Export Plug-In . SVG Version: 6.00 Build 0)  -->
<svg version="1.1" id="Capa_1" xmlns="http://www.w3.org/2000/svg" xmlns:xlink="http://www.w3.org/1999/xlink" x="0px" y="0px"
	 viewBox="0 0 150 150" style="enable-background:new 0 0 150 150;" xml:space="preserve">
<style type="text/css">
	.st0{fill-rule:evenodd;clip-rule:evenodd;fill:#333333;}
	.st1{fill-rule:evenodd;clip-rule:evenodd;fill:#80BD01;}
	.st2{fill:#80BD01;}
	.st3{fill:#EB7077;stroke:#EB7077;stroke-width:9.375000e-02;}
	.st4{fill:#F6A2AD;stroke:#F6A2AD;stroke-width:9.375000e-02;}
	.st5{fill:#3563A3;}
	.st6{fill:#393832;}
	.st7{fill:#F5DE19;}
	.st8{fill:#D34A47;}
	.st9{fill:#FFFFFF;}
	.st10{fill-rule:evenodd;clip-rule:evenodd;fill:#1D1C15;}
	.st11{fill:#395DA1;}
	.st12{fill:#729CCF;}
	.st13{fill:#211915;}
	.st14{fill:url(#SVGID_1_);}
	.st15{fill:url(#SVGID_2_);}
	.st16{fill:url(#SVGID_3_);}
	.st17{opacity:5.000000e-02;}
	.st18{fill:url(#SVGID_4_);}
	.st19{opacity:5.000000e-02;fill:#211915;}
	.st20{fill:#CC6699;}
	.st21{fill:#E34E26;}
	.st22{fill:#EF662A;}
	.st23{fill:#EBEBEB;}
</style>
<g>
	<g>
		<g>
			<g>
				<path d="M31.8,0h6.8v6.7h6.2V0h6.8v20.2h-6.8v-6.8h-6.2v6.8h-6.8L31.8,0L31.8,0z"/>
				<path d="M60.4,6.7h-6V0h18.7v6.7h-6v13.5h-6.8L60.4,6.7L60.4,6.7z"/>
				<path d="M76.1,0h7l4.3,7.1L91.8,0h7.1v20.2h-6.7v-10l-4.7,7.2h-0.1l-4.7-7.2v10h-6.6V0z"/>
				<path d="M102.2,0h6.8v13.5h9.5v6.7h-16.3V0z"/>
			</g>
		</g>
	</g>
	<g id="Guides_to_delete">
		<g>
			<polygon class="st21" points="31.4,137.9 21.7,29.1 128.3,29.1 118.6,137.9 75,150 			"/>
			<polygon class="st22" points="75,38 75,140.8 110.2,131 118.6,38 			"/>
			<polygon class="st9" points="41.6,51.3 45.2,91.7 91.4,91.7 89.9,109 75,113 60.1,109 59.1,97.9 45.7,97.9 47.6,119.3 75,126.9 
				102.4,119.3 106,78.3 57.4,78.3 56.2,64.7 107.2,64.7 107.2,64.7 108.4,51.3 			"/>
			<g>
				<polygon class="st23" points="75,51.3 41.6,51.3 45.2,91.7 75,91.7 75,78.3 57.4,78.3 56.2,64.7 75,64.7 				"/>
				<polygon class="st23" points="75,113 75,113 60.1,109 59.1,97.9 45.7,97.9 47.6,119.3 75,126.9 75,126.9 				"/>
			</g>
		</g>
	</g>
</g>
</svg>
