<?xml version="1.0" encoding="utf-8"?>
<!-- Generator: Adobe Illustrator 21.1.0, SVG Export Plug-In . SVG Version: 6.00 Build 0)  -->
<svg version="1.1" id="Capa_1" xmlns="http://www.w3.org/2000/svg" xmlns:xlink="http://www.w3.org/1999/xlink" x="0px" y="0px"
	 viewBox="0 0 150 150" style="enable-background:new 0 0 150 150;" xml:space="preserve">
<style type="text/css">
	.st0{fill-rule:evenodd;clip-rule:evenodd;fill:#333333;}
	.st1{fill-rule:evenodd;clip-rule:evenodd;fill:#80BD01;}
	.st2{fill:#80BD01;}
	.st3{fill:#EB7077;stroke:#EB7077;stroke-width:9.375000e-02;}
	.st4{fill:#F6A2AD;stroke:#F6A2AD;stroke-width:9.375000e-02;}
	.st5{fill:#3563A3;}
	.st6{fill:#393832;}
	.st7{fill:#F5DE19;}
	.st8{fill:#D34A47;}
	.st9{fill:#FFFFFF;}
	.st10{fill-rule:evenodd;clip-rule:evenodd;fill:#1D1C15;}
	.st11{fill:#395DA1;}
	.st12{fill:#729CCF;}
	.st13{fill:#211915;}
	.st14{fill:url(#SVGID_1_);}
	.st15{fill:url(#SVGID_2_);}
	.st16{fill:url(#SVGID_3_);}
	.st17{opacity:5.000000e-02;}
	.st18{fill:url(#SVGID_4_);}
	.st19{opacity:5.000000e-02;fill:#211915;}
	.st20{fill:#CC6699;}
	.st21{fill:#E34E26;}
	.st22{fill:#EF662A;}
	.st23{fill:#EBEBEB;}
</style>
<g>
	<rect y="0" class="st7" width="150" height="150"/>
	<path d="M100.8,117.2c3,4.9,7,8.6,13.9,8.6c5.8,0,9.6-2.9,9.6-7c0-4.8-3.8-6.5-10.3-9.4l-3.5-1.5c-10.2-4.3-16.9-9.8-16.9-21.2
		c0-10.6,8.1-18.6,20.6-18.6c9,0,15.4,3.1,20,11.3l-11,7c-2.4-4.3-5-6-9.1-6c-4.1,0-6.7,2.6-6.7,6c0,4.2,2.6,5.9,8.7,8.6l3.5,1.5
		c12,5.1,18.7,10.4,18.7,22.1c0,12.7-10,19.6-23.4,19.6c-13.1,0-21.5-6.2-25.7-14.4L100.8,117.2z M51,118.4c2.2,3.9,4.2,7.3,9.1,7.3
		c4.6,0,7.6-1.8,7.6-8.9V68.9h14.1V117c0,14.6-8.6,21.2-21,21.2c-11.3,0-17.8-5.8-21.1-12.9L51,118.4z"/>
</g>
</svg>
