<?xml version="1.0" encoding="utf-8"?>
<!-- Generator: Adobe Illustrator 21.1.0, SVG Export Plug-In . SVG Version: 6.00 Build 0)  -->
<svg version="1.1" id="Capa_1" xmlns="http://www.w3.org/2000/svg" xmlns:xlink="http://www.w3.org/1999/xlink" x="0px" y="0px"
	 viewBox="0 0 150 150" style="enable-background:new 0 0 150 150;" xml:space="preserve">
<style type="text/css">
	.st0{fill-rule:evenodd;clip-rule:evenodd;fill:#333333;}
	.st1{fill-rule:evenodd;clip-rule:evenodd;fill:#80BD01;}
	.st2{fill:#80BD01;}
	.st3{fill:#EB7077;stroke:#EB7077;stroke-width:9.375000e-02;}
	.st4{fill:#F6A2AD;stroke:#F6A2AD;stroke-width:9.375000e-02;}
	.st5{fill:#3563A3;}
	.st6{fill:#393832;}
	.st7{fill:#F5DE19;}
	.st8{fill:#D34A47;}
	.st9{fill:#FFFFFF;}
	.st10{fill-rule:evenodd;clip-rule:evenodd;fill:#1D1C15;}
	.st11{fill:#395DA1;}
	.st12{fill:#729CCF;}
	.st13{fill:#211915;}
	.st14{fill:url(#SVGID_1_);}
	.st15{fill:url(#SVGID_2_);}
	.st16{fill:url(#SVGID_3_);}
	.st17{opacity:5.000000e-02;}
	.st18{fill:url(#SVGID_4_);}
	.st19{opacity:5.000000e-02;fill:#211915;}
	.st20{fill:#CC6699;}
	.st21{fill:#E34E26;}
	.st22{fill:#EF662A;}
	.st23{fill:#EBEBEB;}
</style>
<g>
	<g>
		<path class="st3" d="M37,39c0.5-0.9,1.2-1.8,2.3-2.2c0.4-0.1,0.8,0,1.2,0h20.5c-0.6,0.5-1.2,1-1.6,1.7c-1.1,1.7-1.8,3.6-2.4,5.6
			c-1.8,5.8-3.1,11.8-4.4,17.7c-0.6,2.7-1.1,5.4-1.6,8.1c-1.6,8.8-3.2,17.7-5.2,26.4c-1,4-1.9,8.1-3.4,12c-0.7,1.6-1.4,3.3-2.7,4.5
			c-0.3,0.3-0.6,0.6-1.1,0.6H20.6c-1.2,0-2.4,0.1-3.7-0.1c0.8-0.6,1.5-1.4,2-2.3c1.4-2.6,2.2-5.4,3-8.2c1.3-4.5,2.3-9,3.2-13.6
			c0.6-3,1.3-6,1.7-9c0.5-3.4,1.2-6.7,1.8-10c0.9-4.9,1.9-9.8,3-14.7c0.9-3.8,1.8-7.6,3-11.3C35.4,42.4,36.1,40.6,37,39z"/>
		<path class="st4" d="M61.1,36.7c0.5,0,1.1,0,1.6,0c1.2,0.6,2.1,1.6,2.7,2.8c0.7,1.4,1.3,2.8,1.9,4.3c1.8,5.6,3,11.4,4.3,17.1
			c1.1,5.1,2,10.3,3,15.5c0.1,0.3,0,0.7,0.3,0.7c-1.3,6.8-2.6,13.6-4.2,20.4c-0.9,3.6-1.8,7.3-3.2,10.8c-0.7,1.8-1.5,3.7-3,4.9
			c-1,0.2-1.7-0.5-2.3-1.2c-1-1.3-1.7-2.9-2.3-4.4c-2-5.6-3.3-11.4-4.6-17.2c-1-4.5-1.8-9.1-2.7-13.6c-0.4-2.3-0.9-4.6-1.2-6.9
			c-0.1,0-0.2-0.1-0.2-0.1c0.5-2.7,1.1-5.4,1.6-8.1c1.2-6,2.5-11.9,4.4-17.7c0.7-1.9,1.4-3.8,2.4-5.6C59.9,37.7,60.5,37.2,61.1,36.7
			z"/>
		<path class="st3" d="M83.7,39.8c0.7-1.2,1.4-2.6,2.9-3.1c7.2,0,14.4,0,21.6,0c-0.7,0.7-1.4,1.3-1.8,2.2c-1.4,2.5-2.2,5.3-3,8
			c-2.1,7.5-3.6,15.2-5.1,22.9c-1.3,7.6-2.7,15.2-4.3,22.7c-0.8,3.8-1.7,7.6-2.8,11.3c-0.7,2.3-1.4,4.7-2.6,6.8
			c-0.6,1-1.2,2-2.3,2.6c-6.9,0.1-13.7,0-20.6,0c-0.4,0-0.8,0-1.2-0.1c1.5-1.2,2.3-3.2,3-4.9c1.3-3.5,2.3-7.1,3.2-10.8
			c1.6-6.8,2.9-13.6,4.2-20.4c1.6-8.8,3.2-17.6,5.3-26.2C81.1,47.1,82,43.3,83.7,39.8z"/>
		<path class="st4" d="M108.1,36.7c0.6,0,1.2,0,1.8,0c0.9,0.5,1.6,1.3,2.2,2.2c1,1.6,1.6,3.3,2.2,5c1.5,4.6,2.6,9.4,3.7,14.1
			c1.4,6.4,2.6,12.8,3.7,19.3c0.3,1.5,0.6,3.1,0.8,4.7c0.1,0.1,0.2,0.2,0.3,0.3c-0.7,0.9-0.9,2-1.3,3c-1.1,3.7-1.9,7.5-2.5,11.3
			c-0.5,3-1.2,5.9-2.1,8.8c-0.7,2.1-1.5,4.2-2.9,6c-0.7,0.9-1.5,1.5-2.5,1.9c-1.5,0.2-2.4-1.3-3.1-2.4c-1.5-2.6-2.3-5.6-3.2-8.4
			c-2.9-10.6-4.7-21.4-6.7-32.2c0-0.2-0.1-0.3-0.3-0.4c1.4-7.7,2.9-15.4,5.1-22.9c0.8-2.7,1.6-5.5,3-8
			C106.8,38.1,107.5,37.4,108.1,36.7z"/>
		<path class="st4" d="M0,77.9c0.5,0,0.9-0.1,1.4-0.1h19.7c0.8,0.1,1.7,0,2.5,0.4c1.2,0.5,2.2,1.3,3,2.3c0.1-0.1,0.3-0.2,0.3-0.3
			c-0.4,3-1.1,6-1.7,9c-1,4.5-2,9.1-3.2,13.6c-0.8,2.8-1.7,5.6-3,8.2c-0.5,0.9-1.2,1.7-2,2.3c-0.3,0.1-0.5-0.2-0.8-0.3
			c-0.9-0.5-1.3-1.5-1.9-2.3c-2.5-5.7-2.8-11.9-4.3-17.8c-0.8-3-1.7-5.9-3.2-8.6C6,82.5,4.9,81,3.5,79.7C2.5,78.9,1.3,78.2,0,77.9z"
			/>
		<path class="st3" d="M124.4,79.8c1.1-1.3,2.8-2.1,4.6-2h14.9c2.1,0,4.1-0.1,6.2,0.1c-0.6,0.4-1.4,0.6-2,0.9
			c-2.3,1-4.2,2.8-5.4,4.9c-2,3.4-2.7,7.4-3.2,11.3c-0.6,3.8-0.6,7.7-1.8,11.4c-0.8,2.6-2.1,5.2-4.3,6.9c-6.8,0.1-13.6,0-20.4,0
			c-0.5,0-0.9,0-1.3-0.1c1-0.4,1.9-1.1,2.5-1.9c1.4-1.8,2.2-3.9,2.9-6c0.9-2.9,1.6-5.8,2.1-8.8c0.6-3.8,1.4-7.6,2.5-11.3
			c0.4-1,0.6-2.1,1.3-3C123.3,81.4,123.7,80.5,124.4,79.8z"/>
	</g>
</g>
</svg>
