<?xml version="1.0" encoding="utf-8"?>
<!-- Generator: Adobe Illustrator 21.1.0, SVG Export Plug-In . SVG Version: 6.00 Build 0)  -->
<svg version="1.1" id="Capa_1" xmlns="http://www.w3.org/2000/svg" xmlns:xlink="http://www.w3.org/1999/xlink" x="0px" y="0px"
	 viewBox="0 0 150 150" style="enable-background:new 0 0 150 150;" xml:space="preserve">
<style type="text/css">
	.st0{fill-rule:evenodd;clip-rule:evenodd;fill:#333333;}
	.st1{fill-rule:evenodd;clip-rule:evenodd;fill:#80BD01;}
	.st2{fill:#80BD01;}
	.st3{fill:#EB7077;stroke:#EB7077;stroke-width:9.375000e-02;}
	.st4{fill:#F6A2AD;stroke:#F6A2AD;stroke-width:9.375000e-02;}
	.st5{fill:#3563A3;}
	.st6{fill:#393832;}
	.st7{fill:#F5DE19;}
	.st8{fill:#D34A47;}
	.st9{fill:#FFFFFF;}
	.st10{fill-rule:evenodd;clip-rule:evenodd;fill:#1D1C15;}
	.st11{fill:#395DA1;}
	.st12{fill:#729CCF;}
	.st13{fill:#211915;}
	.st14{fill:url(#SVGID_1_);}
	.st15{fill:url(#SVGID_2_);}
	.st16{fill:url(#SVGID_3_);}
	.st17{opacity:5.000000e-02;}
	.st18{fill:url(#SVGID_4_);}
	.st19{opacity:5.000000e-02;fill:#211915;}
	.st20{fill:#CC6699;}
	.st21{fill:#E34E26;}
	.st22{fill:#EF662A;}
	.st23{fill:#EBEBEB;}
</style>
<g>
	<path class="st0" d="M22.6,76.3c0-0.4-0.2-0.8-0.6-1.1l-10.1-5.8c-0.2-0.1-0.4-0.2-0.6-0.2c0,0-0.1,0-0.1,0c-0.2,0-0.4,0.1-0.6,0.2
		L0.6,75.2C0.2,75.4,0,75.8,0,76.3l0,15.6c0,0.2,0.1,0.4,0.3,0.5c0.2,0.1,0.4,0.1,0.6,0l6-3.4c0.4-0.2,0.6-0.6,0.6-1.1v-7.3
		c0-0.4,0.2-0.8,0.6-1.1l2.5-1.5c0.2-0.1,0.4-0.2,0.6-0.2c0.2,0,0.4,0.1,0.6,0.2l2.5,1.5c0.4,0.2,0.6,0.6,0.6,1.1v7.3
		c0,0.4,0.2,0.8,0.6,1.1l6,3.4c0.2,0.1,0.4,0.1,0.6,0c0.2-0.1,0.3-0.3,0.3-0.5L22.6,76.3z"/>
	<path class="st0" d="M76.3,54.8c-0.2-0.1-0.4-0.1-0.6,0c-0.2,0.1-0.3,0.3-0.3,0.5v15.5c0,0.2-0.1,0.3-0.2,0.4
		c-0.1,0.1-0.3,0.1-0.4,0l-2.5-1.5c-0.4-0.2-0.8-0.2-1.2,0L61,75.5c-0.4,0.2-0.6,0.6-0.6,1.1v11.6c0,0.4,0.2,0.8,0.6,1.1l10.1,5.8
		c0.4,0.2,0.8,0.2,1.2,0l10.1-5.8c0.4-0.2,0.6-0.6,0.6-1.1v-29c0-0.4-0.2-0.8-0.6-1.1L76.3,54.8z M75.4,84.4c0,0.1-0.1,0.2-0.2,0.3
		l-3.5,2c-0.1,0.1-0.2,0.1-0.3,0l-3.5-2c-0.1-0.1-0.2-0.2-0.2-0.3v-4c0-0.1,0.1-0.2,0.2-0.3l3.5-2c0.1-0.1,0.2-0.1,0.3,0l3.5,2
		c0.1,0.1,0.2,0.2,0.2,0.3V84.4z"/>
	<path class="st0" d="M112.4,80.3c0.4-0.2,0.6-0.6,0.6-1.1v-2.8c0-0.4-0.2-0.8-0.6-1.1l-10-5.8c-0.4-0.2-0.8-0.2-1.2,0l-10.1,5.8
		c-0.4,0.2-0.6,0.6-0.6,1.1v11.6c0,0.4,0.2,0.8,0.6,1.1l10,5.7c0.4,0.2,0.8,0.2,1.2,0l6.1-3.4c0.2-0.1,0.3-0.3,0.3-0.5
		c0-0.2-0.1-0.4-0.3-0.5l-10.1-5.8c-0.2-0.1-0.3-0.3-0.3-0.5v-3.6c0-0.2,0.1-0.4,0.3-0.5l3.2-1.8c0.2-0.1,0.4-0.1,0.6,0l3.2,1.8
		c0.2,0.1,0.3,0.3,0.3,0.5v2.9c0,0.2,0.1,0.4,0.3,0.5c0.2,0.1,0.4,0.1,0.6,0L112.4,80.3z"/>
	<path class="st1" d="M40.9,69.5c0.4-0.2,0.8-0.2,1.2,0l10.1,5.8c0.4,0.2,0.6,0.6,0.6,1.1V88c0,0.4-0.2,0.8-0.6,1.1l-10.1,5.8
		c-0.4,0.2-0.8,0.2-1.2,0l-10.1-5.8c-0.4-0.2-0.6-0.6-0.6-1.1V76.4c0-0.4,0.2-0.8,0.6-1.1L40.9,69.5z"/>
	<path class="st2" d="M131.9,95c-0.3,0-0.7-0.1-1-0.3l-3.2-1.9c-0.5-0.3-0.2-0.4-0.1-0.4c0.6-0.2,0.8-0.3,1.4-0.7c0.1,0,0.2,0,0.2,0
		l2.4,1.4c0.1,0,0.2,0,0.3,0l9.5-5.5c0.1-0.1,0.1-0.2,0.1-0.3v-11c0-0.1-0.1-0.2-0.1-0.3l-9.5-5.5c-0.1-0.1-0.2-0.1-0.3,0l-9.5,5.5
		c-0.1,0.1-0.2,0.2-0.2,0.3v11c0,0.1,0.1,0.2,0.1,0.3l2.6,1.5c1.4,0.7,2.3-0.1,2.3-1V77.5c0-0.2,0.1-0.3,0.3-0.3h1.2
		c0.2,0,0.3,0.1,0.3,0.3v10.8c0,1.9-1,3-2.8,3c-0.5,0-1,0-2.2-0.6l-2.5-1.4c-0.6-0.4-1-1-1-1.7v-11c0-0.7,0.4-1.4,1-1.7l9.5-5.5
		c0.6-0.3,1.4-0.3,2,0l9.5,5.5c0.6,0.4,1,1,1,1.7v11c0,0.7-0.4,1.4-1,1.7l-9.5,5.5C132.6,94.9,132.3,95,131.9,95z"/>
	<path class="st2" d="M134.9,87.5c-4.2,0-5-1.9-5-3.5c0-0.2,0.1-0.3,0.3-0.3h1.2c0.1,0,0.3,0.1,0.3,0.2c0.2,1.2,0.7,1.9,3.3,1.9
		c2,0,2.9-0.5,2.9-1.5c0-0.6-0.2-1.1-3.4-1.4c-2.6-0.3-4.2-0.8-4.2-2.9c0-1.9,1.6-3.1,4.3-3.1c3,0,4.5,1.1,4.7,3.3
		c0,0.1,0,0.2-0.1,0.2c-0.1,0.1-0.1,0.1-0.2,0.1h-1.2c-0.1,0-0.2-0.1-0.3-0.2c-0.3-1.3-1-1.7-3-1.7c-2.2,0-2.4,0.8-2.4,1.3
		c0,0.7,0.3,0.9,3.2,1.3c2.9,0.4,4.3,0.9,4.3,3C139.6,86.3,137.9,87.5,134.9,87.5z"/>
	<path class="st1" d="M101.6,79.8c0.1,0,0.2,0,0.2,0l1.9,1.1c0.1,0,0.1,0.1,0.1,0.2v2.2c0,0.1,0,0.2-0.1,0.2l-1.9,1.1
		c-0.1,0-0.2,0-0.2,0l-1.9-1.1c-0.1,0-0.1-0.1-0.1-0.2v-2.2c0-0.1,0-0.2,0.1-0.2L101.6,79.8z"/>
	<g>
		<path class="st2" d="M150,72.3c0,1-0.8,1.8-1.8,1.8c-1,0-1.8-0.8-1.8-1.8c0-1,0.9-1.8,1.8-1.8C149.2,70.5,150,71.3,150,72.3z
			 M146.6,72.3c0,0.9,0.7,1.5,1.5,1.5c0.9,0,1.5-0.7,1.5-1.5c0-0.9-0.7-1.5-1.5-1.5C147.3,70.8,146.6,71.5,146.6,72.3z M147.5,71.3
			h0.7c0.2,0,0.7,0,0.7,0.5c0,0.4-0.2,0.5-0.4,0.5c0.3,0,0.3,0.2,0.3,0.5c0,0.2,0,0.4,0.1,0.5h-0.4c0-0.1-0.1-0.6-0.1-0.6
			c0-0.1-0.1-0.2-0.2-0.2h-0.4v0.8h-0.4V71.3z M147.9,72.2h0.3c0.3,0,0.3-0.2,0.3-0.3c0-0.3-0.2-0.3-0.3-0.3h-0.3V72.2z"/>
	</g>
</g>
</svg>
