<?xml version="1.0" encoding="utf-8"?>
<!-- Generator: Adobe Illustrator 21.1.0, SVG Export Plug-In . SVG Version: 6.00 Build 0)  -->
<svg version="1.1" id="Capa_1" xmlns="http://www.w3.org/2000/svg" xmlns:xlink="http://www.w3.org/1999/xlink" x="0px" y="0px"
	 viewBox="0 0 150 150" style="enable-background:new 0 0 150 150;" xml:space="preserve">
<style type="text/css">
	.st0{fill-rule:evenodd;clip-rule:evenodd;fill:#333333;}
	.st1{fill-rule:evenodd;clip-rule:evenodd;fill:#80BD01;}
	.st2{fill:#80BD01;}
	.st3{fill:#EB7077;stroke:#EB7077;stroke-width:9.375000e-02;}
	.st4{fill:#F6A2AD;stroke:#F6A2AD;stroke-width:9.375000e-02;}
	.st5{fill:#3563A3;}
	.st6{fill:#393832;}
	.st7{fill:#F5DE19;}
	.st8{fill:#D34A47;}
	.st9{fill:#FFFFFF;}
	.st10{fill-rule:evenodd;clip-rule:evenodd;fill:#1D1C15;}
	.st11{fill:#395DA1;}
	.st12{fill:#729CCF;}
	.st13{fill:#211915;}
	.st14{fill:url(#SVGID_1_);}
	.st15{fill:url(#SVGID_2_);}
	.st16{fill:url(#SVGID_3_);}
	.st17{opacity:5.000000e-02;}
	.st18{fill:url(#SVGID_4_);}
	.st19{opacity:5.000000e-02;fill:#211915;}
	.st20{fill:#CC6699;}
	.st21{fill:#E34E26;}
	.st22{fill:#EF662A;}
	.st23{fill:#EBEBEB;}
</style>
<path class="st20" d="M72.4,18.8c2.8,0.6,5.7,1,8.5,1.9c4.7,1.4,8.9,3.8,11.5,8.1c3.2,5.4,2.8,11.2,0.6,16.8
	c-4.3,10.9-12.4,17.9-23.3,21.8c-7.5,2.7-15.2,3.8-23.1,2.7c-4-0.5-7.4-2.2-10-5.2c-0.8-0.9-1.3-2.2-1.8-3.3
	c-0.1-0.3,0.1-0.9,0.4-1.2c0.1-0.1,0.8,0,1,0.3c5.2,5.4,11.7,5.4,18.3,4.3c10.1-1.7,18.9-5.9,25.9-13.5c2.8-3.1,5-6.5,5.8-10.7
	c1.1-5.8-1.2-9.5-6.8-11.3c-6-2-12.1-1.9-18.2-0.7c-15.3,3-28.7,10.1-40.5,20.2c-2.4,2-4.5,4.5-6.1,7.2c-5.1,8-4,15.5,3.1,22
	c3.5,3.2,7.3,6,11,9c1.9,1.6,3.7,3.3,5.6,4.8c0.4,0.3,1.3,0.6,1.7,0.3c4.5-2.4,9.1-4.9,13.6-7.4c0.4-0.2,0.8-0.7,1.1-1.1
	c2.4-2.9,5.2-5.4,8.6-7.1c2.2-1,4.6-1.8,6.9-0.2c2.2,1.5,2.1,4,2,6.4c0,0.6-0.1,1.3-0.1,2c0.6-0.2,1-0.4,1.4-0.5
	c2.4-0.4,3.9,1.1,3.3,3.5c-1.1,4.7-2.4,9.3-3.5,14c-0.3,1.3-0.3,2.7-0.4,4.1c0.2,0.1,0.3,0.1,0.5,0.2c0.3-0.4,0.6-0.7,0.8-1.1
	c4.4-9.7,8.8-19.5,13.2-29.2c0.4-0.8,0.6-1.7,0.7-2.5c0.2-2,1.4-2.8,3.3-3c1.5-0.1,3-0.3,4.5-0.1c1.8,0.2,2.4,1.1,1.7,2.8
	c-1.4,3.6-2,7.4-1,11.2c0.4,1.6,1.1,3.1,1.9,5.2c3.6-6.8,7.9-12.5,9.6-19.6c0.3-1.3,0.3-3,2-3.4c2.4-0.6,4.9-1.3,7.3,0
	c0.4,0.2,0.6,1.5,0.4,2.1c-1,3.3-2.1,6.6-1.2,10.1c0.7,2.7,1.8,5.3,2.7,8c2.4-0.8,4.3-1.6,6.3-2.1c5.9-1.5,11.7-1.5,17.4,0.7
	c5.7,2.2,9.6,6.3,11.1,12.4c0,1.4,0,2.8,0,4.2c-1.1,3.1-2.8,5.7-5.9,7c-0.7,0.3-1.6,0.2-2.4,0.2c0.5-0.6,0.8-1.3,1.4-1.7
	c3.7-2.6,4.7-6.2,2.8-10.3c-1.2-2.7-3.2-4.6-5.8-5.9c-6.3-3.1-12.9-3.4-19.7-1.8c-1,0.2-2.1,0.7-3.1,1c0.3,0.8,0.5,1.3,0.6,1.9
	c0.7,2.5,1.1,5-0.1,7.4c-2.6,5.1-7.2,7.7-12.6,8.9c-2.7,0.6-4.6-1.1-4.2-3.9c0.3-2.2,0.9-4.6,2-6.4c1.8-2.8,4.1-5.3,6.2-7.9
	c-1.2-3.6-2.5-7.3-3.9-11.1c-0.2,0.3-0.4,0.6-0.6,0.9c-1.9,3.3-3.6,6.9-5.8,10c-1.7,2.4-2.2,4.6-1.2,7.5c1.5,4.4,0.3,8.5-3.3,11.6
	c-3.1,2.6-6.7,4-10.7,4.3c-1.7,0.1-3.7,0.5-4.7-1.4c-0.9-1.9,0.5-3.2,1.5-4.5c2.8-3.5,5.7-7,8.5-10.5c0.4-0.5,0.4-1.5,0.2-2.1
	c-1.1-3.3-2.3-6.6-3.5-9.9c-0.1-0.4-0.3-0.8-0.5-1.5c-0.5,1-0.7,1.7-1.1,2.4c-3.9,8-7.7,16.1-11.8,24.1c-1,1.9-2.7,3.6-4.4,5.1
	c-1.6,1.3-3.7,0.7-4.8-1.2c-0.4-0.7-0.8-1.6-0.8-2.5c-0.2-2.2-0.3-4.4-0.4-6.6c-0.2,0.4-0.4,0.9-0.6,1.4c-1.5,3-2.8,6.2-4.7,9
	c-2.3,3.5-6.7,3.4-9-0.1c-2.5-3.8-3.7-8.1-3.3-12.7c0.2-3.3,0.9-6.7,1.4-10.1c-2.6,1.5-5.2,3-7.8,4.5c0.1,0.4,0.1,0.6,0.2,0.7
	c4.2,11.1,0.2,23.2-9.5,29.9c-3,2-6.4,3.1-9.8,3.9c-1.9,0-3.7,0-5.6,0c-0.1-0.1-0.3-0.2-0.4-0.3c-4.4-0.4-6.5-3.2-7.3-7.1
	c-1.2-5.7,0.6-10.5,4.5-14.6c3.6-3.9,8-6.8,12.6-9.5c2.2-1.3,4.5-2.5,7-3.9c-0.6-0.5-1-0.9-1.5-1.2c-3.4-2.4-6.9-4.8-10.3-7.3
	C10,81.8,2.6,76.2,0,66.6c0-1.4,0-2.8,0-4.2c0.1-0.1,0.3-0.3,0.3-0.4c1-5.4,3.8-10,7.3-14C20,33.8,36.1,25.8,53.8,20.6
	c3-0.9,6.3-1.2,9.4-1.8C66.3,18.8,69.3,18.8,72.4,18.8z M32.9,99.1c-5.8,3.5-11.6,6.7-15.7,12.1c-1.4,1.9-2.4,4.3-2.9,6.6
	c-0.8,3.9,1.5,5.8,5.3,4.8c5.7-1.4,9.5-5,12.1-10.1C33.9,108.3,34.4,103.9,32.9,99.1z M51.5,102.2c0.3,1.7,0.6,3.4,1.1,5.1
	c0.3,1.2,1.2,1.4,2,0.4c0.3-0.4,0.7-0.8,0.9-1.3c1.4-3.2,2.9-6.4,4.1-9.6c1.5-4.3,2.8-8.6,4.2-13c0.2-0.6,0-1.6-0.3-1.9
	c-0.4-0.3-1.4-0.2-1.9,0.2c-1.3,0.8-2.6,1.7-3.5,2.8C54.1,90,51.9,95.7,51.5,102.2z M105.8,103.5c4.7-0.9,7.6-6,5.7-10.1
	C108.5,96.1,106.5,99.3,105.8,103.5z M84.6,108.5c3.5-0.6,7.5-5.3,6.9-8C89.2,103.2,87,105.8,84.6,108.5z"/>
</svg>
