<?xml version="1.0" encoding="UTF-8"?>
<!DOCTYPE svg PUBLIC "-//W3C//DTD SVG 1.1//EN" "http://www.w3.org/Graphics/SVG/1.1/DTD/svg11.dtd">
<!-- Creator: CorelDRAW X7 -->
<svg xmlns="http://www.w3.org/2000/svg" xml:space="preserve" width="297mm" height="210mm" version="1.1" style="shape-rendering:geometricPrecision; text-rendering:geometricPrecision; image-rendering:optimizeQuality; fill-rule:evenodd; clip-rule:evenodd"
viewBox="0 0 29700 21000"
 xmlns:xlink="http://www.w3.org/1999/xlink">
 <defs>
  <style type="text/css">
   <![CDATA[
    .str0 {stroke:#373435;stroke-width:20}
    .fil0 {fill:none;fill-rule:nonzero}
    .fil4 {fill:#37BFBB}
    .fil3 {fill:#F7AECB}
    .fil1 {fill:#FEDF60}
    .fil2 {fill:#FEDF60}
   ]]>
  </style>
   <clipPath id="id0">
    <rect x="-9670" y="-4698" width="49041" height="30395"/>
   </clipPath>
 </defs>
 <g id="Capa_x0020_1">
  <metadata id="CorelCorpID_0Corel-Layer"/>
  <g style="clip-path:url(#id0)">
   <image id="mural.jpg" x="-9670" y="-4698" width="49041" height="30395" xlink:href="fondo1_Images\fondo1_ImgID1.png"/>
  </g>
  <path class="fil0 str0" d="M-24396 -5345l211 0 -70 113 -212 0 71 -113zm105 0m71 56m-141 57m-70 -57"/>
  <path class="fil1" d="M17311 12008c306,-771 -450,-95 -557,-1251 -62,-673 369,-1442 1121,-1409 325,14 670,115 1001,155 691,116 578,1104 1151,1462 595,252 1095,-221 1413,-676 425,-657 -398,-795 -3,-1423 161,-258 -246,5 -321,134 -96,165 -73,914 -476,444 -291,-414 -244,-1246 311,-1384 814,-177 807,-4 1615,-463 316,-180 248,39 299,395 17,120 36,239 56,359 139,816 385,49 474,-266 147,-492 259,-504 612,-141 205,217 166,678 173,986 18,748 -366,805 510,646 533,-97 1172,183 1540,-72 400,-331 736,-1043 941,-1520 -321,99 -724,342 -1002,535 -389,282 155,549 -249,761 -217,114 -576,76 -813,40 -382,-66 -646,-166 -528,-594 49,-179 201,-365 281,-617 56,-201 278,-1373 554,-1309 215,51 481,589 1070,-62 368,-406 502,-1002 706,-1235 428,-485 1046,553 1412,-412 147,-388 262,-585 544,-896 76,-80 142,-147 229,-216 287,-206 154,255 122,389 -488,1894 4083,2349 3655,3077 -82,140 -560,274 -142,229 673,-72 566,-522 163,-914 -670,-651 -1171,-848 -207,-1561 66,-50 131,-99 197,-150 319,-248 329,-407 721,-7 198,330 -253,763 85,1435 40,-186 -52,-350 64,-700 37,-113 94,-223 141,-333 244,-699 165,-484 622,-1051 271,-336 1181,-1826 147,-1704 -162,19 -764,254 -520,396 209,121 272,25 192,443 -93,495 -336,666 -741,868 -249,124 -48,156 -449,139 -368,-15 -471,153 -770,344 -278,176 -1055,542 -958,907 112,423 1165,856 1233,1033 -250,-36 -1976,-789 -2239,-944 -457,-269 -1034,-738 -869,-1334 99,-357 478,-1352 271,-1628l-90 -72c-156,-66 -573,209 -298,-51 534,-504 784,73 929,518 239,728 469,796 1208,521 247,-91 493,-193 734,-298 478,-210 725,-310 1223,-469 -125,131 -552,225 -421,370 76,83 236,-145 342,-223 379,-276 1016,-767 1518,-567 686,273 -413,1806 -679,2135 -340,455 -552,1208 -529,1772 9,223 29,427 24,653 34,-93 29,-864 62,-1068 54,-342 150,-558 283,-875 304,-714 848,-968 1087,-1925l25 -100c71,-348 10,-551 -205,-826 125,-19 264,411 271,541 10,165 -168,937 -12,416 301,-1005 -536,-1293 -1371,-1220 -945,96 -1710,423 -2523,-255 -571,-474 -916,-852 -1622,-1162 603,364 1644,1088 1423,1917 -108,404 605,348 819,313 569,-94 1189,-260 1738,-432 467,-149 1138,-319 1424,207 139,254 -28,845 -174,1041 306,-847 350,-1520 -788,-1205 -512,155 -883,421 -1425,597 -223,73 -433,144 -652,230 121,-153 1153,-453 1444,-606 380,-199 598,-273 1025,-330 -816,78 -1220,436 -1992,646 -445,121 -1264,423 -1674,201 -618,-334 -732,-1643 -2111,-385 -834,769 -851,1043 -2072,649 -230,-69 -838,-214 -990,41 -71,121 -189,829 252,562 406,-290 641,-158 1053,72 635,355 908,469 1450,-148 248,-282 694,-882 1017,-1033 270,-84 224,271 200,429 -70,389 -379,1075 -312,1396 235,1131 2462,1577 3310,2117 159,102 214,152 321,305 84,120 284,-147 -488,-720 -756,-560 -1147,-810 -152,-1439l86 -54c233,-149 334,-223 539,-383 234,-181 499,264 608,-38 77,-211 371,-269 582,-406 406,-265 700,-573 181,112 -344,452 -353,165 -556,798 -235,737 21,-297 96,-413 151,-235 358,-228 542,-610 -277,140 -698,267 -849,552 -179,339 -334,-214 -676,60 -290,224 -997,611 -1109,895 -242,608 1334,1074 1282,1622 -21,214 -146,-87 -297,-204 -469,-362 -1840,-777 -2500,-1168 -435,-258 -1058,-761 -932,-1334 60,-275 190,-582 261,-870 315,-1597 -1025,320 -1355,608 -889,777 -1610,-820 -2250,-118 -278,297 -354,231 -365,-203 -13,-517 199,-595 676,-534 146,19 271,56 411,99 1521,500 1483,-549 2592,-1083 192,-93 315,-121 526,-101 807,146 526,1288 1921,925 550,-143 1128,-323 1650,-548 96,-42 191,-82 288,-123 247,-101 471,-151 732,-202 -20,-52 -719,131 -777,150 -656,219 -1059,376 -1754,520 -693,147 -1012,56 -1372,-582 -165,-293 57,-611 -518,-985 -356,-232 121,171 173,230 265,301 31,364 175,706 230,542 -132,-367 -922,-159 -694,217 -1271,939 -1685,1030 -284,62 -668,-5 -1005,39 -685,59 -894,-73 -1269,-607 -326,-465 84,292 95,584 16,396 -110,720 8,1178 48,189 90,298 240,422 340,-235 148,-1168 1234,-541 700,404 843,430 1411,-229 193,-224 380,-450 576,-673 733,-825 607,-9 445,537 -200,645 -351,893 211,1454 733,732 1952,953 2841,1445 201,111 368,222 436,447 40,131 401,-129 -324,-709 -690,-553 -1302,-811 -291,-1481l55 -37c200,-135 391,-274 584,-419 261,-199 432,329 623,3 26,-44 267,-277 173,3 -74,239 -271,958 -261,1181 23,524 82,-67 151,-244 190,-482 244,-727 597,-1133 355,-401 520,-688 722,-1179 211,-550 -105,-665 -245,-398 -340,665 -362,1036 -1027,1400 -349,190 -32,362 -545,252 -332,-71 -354,63 -638,252 -291,193 -1068,567 -955,958 121,423 1492,1039 1396,1330 -3,0 -507,-304 -571,-335 -813,-392 -3353,-1089 -2999,-2327 113,-393 352,-1019 314,-1405 -99,-318 -343,-125 -529,25 -384,312 -858,1032 -1227,1145 -461,142 -1081,-375 -1610,-524 -820,-196 -192,-331 325,-120 658,268 1060,594 1668,-18 158,-170 312,-346 469,-517 1404,-1523 1382,290 1943,511 181,72 787,8 240,-166 -696,-221 -718,-1109 -1396,-962 -805,237 -1230,1330 -1836,1407 -656,33 -1513,-638 -1920,-277 -75,66 -213,386 124,282 823,-254 1078,440 1737,447 335,4 573,-218 785,-446 244,-279 661,-794 1000,-932 301,-38 222,368 188,565 -57,326 -340,1101 -310,1341 128,1017 2283,1600 3100,2012 186,94 299,169 456,303 193,164 36,-157 -133,-316 -575,-541 -1794,-915 -677,-1638 215,-140 425,-270 637,-416l175 -122c245,-172 490,221 608,-63 87,-210 411,-292 634,-480 191,-162 1132,-1215 531,-243 -275,445 -361,507 -686,856 -233,317 -264,742 -458,1083 -14,-228 223,-936 340,-1130 262,-283 742,-602 -63,-228 -406,190 -135,475 -602,248 -268,-131 -304,31 -553,201 -888,598 -1389,766 -336,1541 171,126 905,627 701,900 -72,97 -78,-115 -250,-259 -616,-517 -2125,-793 -2950,-1490 -330,-279 -622,-640 -510,-1096 64,-259 175,-533 245,-801 242,-1018 -271,-623 -693,-129 -291,343 -744,1041 -1246,963 -551,-86 -1195,-862 -1644,-331 -231,274 -345,267 -383,-160 -45,-513 121,-640 586,-633 481,42 578,206 1173,192 617,-15 807,-291 1234,-673 1624,-1455 1645,103 2404,357 -845,-311 -759,-1910 -2590,-175 -446,418 -666,549 -1307,496 -301,-41 -1236,-371 -1422,-76 -110,174 -143,905 141,779l70 -45c292,-242 389,-346 800,-161 818,368 1039,818 1768,-36 123,-144 1180,-1564 1167,-743l-14 160c-69,405 -379,1066 -287,1410 347,1292 3140,1637 3617,2366 120,184 249,-130 -295,-564 -677,-541 -1477,-829 -402,-1537 226,-149 445,-299 667,-456 297,-213 521,325 661,-44 81,-214 374,-282 577,-331 212,-51 -117,205 -183,275 -235,290 -387,838 -423,1206 80,-228 169,-410 249,-658 85,-264 183,-392 371,-593 173,-181 717,-856 700,-1066 -143,68 -543,545 -827,732 -213,139 -392,173 -514,394 -182,332 -322,-203 -700,92 -300,229 -1045,630 -1155,924 -214,571 1280,1033 1340,1537 19,155 -187,-99 -311,-180 -813,-528 -3679,-1170 -3336,-2490 68,-261 179,-532 252,-800 270,-1086 -197,-873 -755,-248 -650,746 -807,1157 -1792,642 -400,-213 -643,-386 -1101,-230 -379,129 -218,-327 4,-382 394,-97 1063,274 1488,363 621,92 888,-376 1265,-772l70 -73c1421,-1475 1420,286 2304,405 173,23 542,-31 185,138 -1095,516 -822,-1509 -1866,-995 -314,155 -736,627 -929,919 142,-120 388,-450 582,-628 1125,-1032 1132,573 1632,820 384,190 1210,-203 1595,-354 507,-201 858,-292 1350,-567 714,-411 1791,-508 1357,723 -91,248 -182,433 -311,662 858,-1581 276,-2109 -1244,-1258 -444,249 -1142,478 -1639,678 -550,218 -1094,479 -1409,-178 -208,-435 -387,-1165 -1063,-718 -424,307 -1049,1210 -1393,1325 -529,177 -1310,-458 -1516,-337 -3,89 615,358 720,410 919,452 1088,29 1700,-628l124 -133c761,-801 848,-282 644,496 -229,803 -537,1114 237,1784 797,690 2099,911 2995,1499 254,166 -65,-199 -136,-261 -666,-572 -1845,-887 -655,-1656 257,-166 504,-330 754,-506 306,-215 532,158 686,-101 178,-300 515,-185 847,-835 105,-205 281,-542 342,-750 14,-113 -4,-270 201,-200 387,195 19,802 -133,1065 -226,392 -396,603 -678,935 -223,301 -467,985 -509,1359 -31,267 -116,-270 -26,-556l54 -169c27,-89 186,-726 192,-811 -146,-84 -185,350 -395,237 -449,-240 -316,-116 -793,195 -910,590 -1099,766 -158,1492 168,129 892,677 565,912 -103,74 -32,-149 -260,-334 -604,-490 -2062,-785 -2869,-1419 -377,-297 -708,-692 -561,-1200 108,-371 211,-617 255,-1013 28,-742 -741,240 -890,423 -263,321 -667,934 -1152,779 -614,-196 -1201,-953 -1528,33 -296,839 -501,-204 -515,-512 -15,-339 14,-1191 -256,-1403 -167,-132 -215,547 -235,670 -22,133 -213,1115 -97,361 29,-187 131,-1296 206,-1371 202,-200 534,846 1000,747 177,-38 82,-196 -21,-278 -360,-288 -447,-434 -750,-736 -296,-295 -501,-447 -904,-379 -424,71 -388,-86 -780,418 -488,628 -771,1646 -1590,1923 -623,211 -855,455 -1555,434 -261,-8 -511,4 -772,20 -539,-22 -266,-1008 -89,-1305 213,-359 1292,-1416 735,-1771 -304,-194 -1255,140 -673,97 1433,-107 -274,1208 -557,1548 -1244,1492 -391,3148 -348,1731 59,-1939 1460,-2203 1608,-2998 21,-112 -52,-347 26,-209 228,402 -705,1231 -938,1547 -467,634 -550,1294 -202,1991l34 68c226,437 383,920 -170,1201 -1134,480 -1111,-711 -1047,-1458 154,-1784 1682,-2552 1774,-2924 56,-223 -241,-128 -360,-93 -1131,350 -1881,987 -2630,1878 -843,1004 -1780,-501 -2579,426 -404,467 -278,1502 -1300,902 -682,-402 -1130,-574 -1913,-702l-104 -17 -105 -16c-571,-71 -995,54 -1473,371 -190,126 226,24 299,13 511,-69 1370,-126 1617,474 209,505 -543,852 -11,630 545,-227 1050,-317 317,-796 -438,-287 -569,-388 -1097,-521 -508,-122 224,-101 335,-84 526,95 1935,482 1923,1175 -12,740 -2000,-126 -1823,1305 60,491 -117,0 -239,88 -282,204 -472,148 -821,94 -118,-18 -1784,-289 -816,-304 612,-10 1329,-11 1498,-748 127,-551 -694,-853 -1190,-734 -189,46 -314,117 -477,217 -506,334 -745,423 -1276,646 -587,247 20,199 293,193 865,-18 -478,36 -525,-58 52,-48 922,-425 1111,-530 561,-322 1089,-735 1738,-314 360,233 375,669 78,965 -81,81 31,-113 44,-278 51,-658 -711,-835 -1210,-579l-98 50c-728,419 -718,481 82,149 364,-139 896,-238 1041,256 145,499 -546,605 -889,615 -189,6 -377,-4 -565,-5 -451,6 -1774,-28 -2083,199 -661,485 1575,1341 1183,1495 -306,120 -1194,-488 -1345,-365 -144,119 123,502 -187,948 -253,364 -808,1132 -1257,544 -341,-446 -76,-833 -836,-500 -665,291 -1478,509 -2181,773 -667,250 -1297,466 -1967,699 -853,296 -925,476 39,411 614,-41 1253,-74 1869,-109 658,-37 2180,-36 2436,739 88,268 57,172 183,402 102,186 -79,446 -169,607 -115,189 -679,1015 -861,1039 -89,12 322,-326 373,-386 208,-245 676,-836 527,-1175l-41 -71c-346,-430 -78,-317 -272,-593 -276,-393 -1259,-484 -1708,-482 -1030,4 -2107,184 -3135,236 -227,11 -847,47 -734,-336 67,-223 -175,43 -206,109 -275,589 1197,558 1467,629 263,70 132,176 37,407 -190,464 -405,-219 -922,-177 -225,19 -496,42 -664,208 -230,226 -965,689 -1263,665 -120,-10 -298,-65 -424,-91 -1533,-272 -2600,1099 -1620,2396 142,188 280,395 -109,307 -407,-92 -788,-527 -985,-492 -251,45 -373,140 -667,171 -593,64 -603,378 -857,803 -265,443 -666,14 -1042,731 -228,435 -352,164 -574,506 -329,510 99,1174 673,1338 618,176 1136,-85 1669,-345 394,-194 -363,373 -9,554 158,80 543,-61 705,-120 432,-168 744,-286 1191,-420 634,-190 1402,-550 1477,-1300 33,-787 -484,-435 92,-967 469,-434 745,-930 659,-1590 150,1884 -2126,1814 -1451,2525 291,306 137,518 -187,720 -293,182 -828,238 -1144,129 -264,-92 -19,-354 89,-501 326,-441 888,-832 1393,-1042 791,-328 1470,-1026 1241,-1956 -324,-1319 -2013,-1125 -2001,-140 8,657 842,704 871,210 28,-464 -467,-166 -566,-307 -113,-162 109,-414 255,-494 860,-471 1959,856 1055,1972 -442,544 -979,611 -1615,673 -119,12 -1284,110 -789,405 143,86 -51,167 -165,237 -3,2 -1202,733 -705,617 391,-91 778,-481 1139,-715 725,-471 -11,-111 -154,-320 110,-200 1082,-238 1334,-303 928,-243 1633,-1199 1147,-2100 -495,-918 -1627,-541 -1550,-23 47,317 485,-105 591,254 151,510 -800,663 -844,-81 -58,-975 1631,-1229 1987,82 256,944 -431,1661 -1250,1993 -735,298 -1278,810 -1787,1406 -77,90 -321,358 -127,447 -382,-103 804,-1152 940,-1261 451,-357 554,-408 1076,-635 1938,-840 1227,-3008 -82,-2848 -956,116 -946,1312 -286,1335 449,16 575,-711 6,-573 -514,125 -115,-932 767,-599 889,335 902,1545 218,2175 -727,670 -1885,447 -2103,690 -131,146 454,85 483,100 -15,48 -561,399 -690,517 -230,211 -844,675 -1169,544 20,-112 540,-394 648,-465 80,-53 613,-341 579,-428 -29,-73 -518,-284 483,-414 790,-102 1546,-78 2038,-880 735,-1199 -544,-2341 -1279,-1729 -177,148 -315,518 59,457 659,-107 304,886 -256,544 -670,-411 25,-1649 1059,-1190 928,413 913,1651 209,2331 -466,448 -1009,484 -1524,905 -155,127 -993,832 -816,1053 58,73 434,80 524,81 323,-4 974,-173 996,-566 -89,-439 -716,-468 333,-1069 850,-488 1302,-1318 850,-2258 466,867 58,1609 -614,2202 -362,320 117,288 42,881 -31,247 -146,424 -296,615 -477,555 -1317,665 -1982,965 -354,160 -661,302 -1031,427 -1230,418 2247,354 2283,353 1280,-48 2438,-188 3704,-330 1012,-90 1782,317 2861,-33 549,-177 819,-589 943,-626 234,-70 881,506 1471,475 172,-9 239,-53 302,-204 56,-358 -81,-793 397,-973 573,-159 1966,425 2628,592 1395,353 3091,939 4365,1589 459,234 1257,622 1653,892 -1341,-743 -2761,-1438 -4281,-1708 -1147,-204 -1367,129 -169,501 641,200 1221,275 1869,406 631,127 -1408,-405 -632,-398 1062,11 3255,1244 4169,1849 779,516 1173,691 393,-304 -482,-616 -990,-1121 -1642,-1552 -693,-458 -1442,-1080 -2115,-1592 -421,-320 -2351,-1819 -1828,-2374 221,-233 313,101 484,285 168,180 923,769 1132,800 163,24 499,-66 565,-233 77,-196 42,-245 383,-64 241,128 492,292 723,439 1244,801 -187,-678 1080,-1174 290,-113 479,-203 752,-358 203,-118 406,-235 611,-351 79,-45 577,-353 647,-242 253,402 -49,290 548,744 665,494 751,465 639,1294 -55,401 54,490 481,460 577,-74 1157,-399 1652,-686 354,-205 749,162 1168,276 477,99 659,3 1109,70 314,47 727,122 984,-108 -40,-131 -378,-209 -508,-262 -83,-33 -642,-285 -448,10 38,59 850,214 511,312 -244,71 -657,-111 -959,-83 -659,62 -914,-97 -1421,-503l-158 -126c-158,-126 -490,-342 -689,-352 19,168 269,206 336,402 -153,179 -339,320 -537,443 -277,167 -1380,799 -1282,34 71,-555 194,-661 179,-1296 -9,-494 18,-687 595,-541 596,151 -561,-480 -549,-718 11,-245 -178,-296 -50,-438 136,-152 -94,-711 124,-915 86,84 248,623 326,792 210,454 542,901 795,1356 262,471 462,647 755,1058 -179,-68 -843,-752 -1185,-910 -797,-367 -672,234 -760,787 -18,111 -39,208 -64,318 -130,520 -259,1033 532,700 129,-55 987,-508 660,-688 -74,-41 -390,-54 -263,96 243,287 -576,642 -802,615 -346,-41 -68,-748 -13,-973 38,-165 104,-752 240,-833 379,-223 1153,535 1443,768 408,327 484,540 1003,775 -2,-2 -376,-266 -438,-324 -299,-279 -864,-1055 -1034,-1445 -147,-338 -541,-1554 -521,-1882 67,-455 350,-860 841,-591 530,294 599,309 1023,743 337,337 623,574 1072,749 347,134 311,414 477,467 320,-12 756,-1330 761,-1616 3,-200 -166,-261 -320,-324 -305,-105 -741,-310 -505,-719 351,-415 736,-321 1164,-57 301,186 887,666 878,1046 -4,195 173,201 368,285 1556,671 2353,1703 3758,2513 750,433 180,-309 21,-533 -351,-494 -1812,-2620 -301,-2471 193,19 405,56 600,85 297,43 858,137 409,-322 -451,-401 -1913,-644 -2517,-641 -531,2 -1005,-261 -1233,-746 -317,-672 636,-489 960,-425 96,19 176,33 273,47 801,51 1781,-241 2463,-657 364,-232 707,-478 1078,-705 259,-157 220,-200 222,230 0,597 207,642 698,976 603,411 1649,1179 1890,1874 88,253 -2,-253 -32,-344 -36,-105 -263,-656 80,-490 273,132 357,508 399,779 -11,-298 -222,-992 -595,-912 -337,72 190,630 -610,-137 -296,-284 -1231,-1021 -1348,-1338 -151,-410 165,-796 543,-944 290,-114 679,-170 992,-219 915,-139 -490,108 -176,500 120,151 287,233 464,296 43,-426 330,-603 696,-764 428,-188 335,25 672,-459 324,-466 222,-688 293,-1174 46,-321 20,523 48,-43 29,-611 141,-1255 476,-1780 413,-595 546,-739 823,-1445 66,-177 19,46 43,-61 87,-387 70,-770 -296,-995 336,375 382,553 212,1066 -308,848 -493,897 -917,1568 -332,564 -464,1095 -451,1747 1,63 -26,821 -32,295 -10,-995 -116,-837 256,-1830l22 -57c155,-409 529,-712 771,-1146 1161,-2084 -898,-1451 -1545,-590 -184,245 -168,-120 -136,-145 20,-15 1011,-520 375,-235 -328,147 -617,230 -955,397 -389,188 -1439,689 -1832,512 -471,-212 -381,-1633 -1114,-1295 -79,36 -539,385 -172,237 511,-162 450,321 386,675 -53,294 -333,1104 -313,1290 101,938 2137,1594 2895,1889 644,251 -491,-428 -555,-472 -978,-681 -112,-949 544,-1393 109,-74 214,-149 321,-227 354,-265 563,37 826,-217 222,-212 499,-154 700,-591 72,-155 248,-665 15,-744 -143,-48 -293,24 -180,-153 167,-203 1442,-636 949,558 -303,695 -423,747 -844,1295 -206,302 -504,1036 -504,1403 0,292 37,531 -78,17 -183,-813 421,-978 -269,-1380 -220,-120 -211,47 -472,248 -759,569 -1012,730 -181,1476 296,265 932,871 213,1087 -55,16 -578,102 -310,-21 344,-159 456,-306 83,-558 -435,-293 -1638,-684 -2207,-968 -1887,-943 -1085,-1860 -1232,-2076 -256,-112 -789,729 -878,936 -216,502 -149,725 -860,459 -609,-227 -649,172 -868,640 -824,1762 -1374,662 -1577,739 -138,53 -249,567 -283,706 -80,336 -165,672 -343,971 -516,773 225,855 825,891 831,28 402,-580 560,-784 78,-65 997,-673 1056,-567 24,42 -50,169 -71,210 -157,303 -511,1010 -752,1210 -211,176 -387,198 -651,179 -531,-71 -621,-96 -1162,19 -112,24 -443,63 -391,-139 130,-510 64,-545 41,-1052 -27,-299 -142,-693 -501,-731 -382,-41 -253,1076 -575,995 -277,-69 -174,-1174 -306,-1201 -106,-21 -513,276 -700,346 -404,152 -690,118 -1096,211 -427,108 -512,456 -521,846 5,406 391,956 552,527 102,-272 44,-557 390,-648 157,-42 -73,177 -49,458 51,585 623,597 -272,1443 -129,122 -230,206 -389,285 -1083,423 -1012,-1007 -1613,-1417l-162 -53c-372,-41 -1119,-253 -1443,-111 -586,257 -870,1115 -635,1729 235,614 732,371 493,841 -163,192 -296,92 -473,-62 -293,-255 -623,-689 -789,-1040 -218,-461 -347,-325 -861,-370 -1584,-109 -379,-225 -283,-513 178,-534 -1493,-1834 -1897,-2107 -240,-162 -2058,-1235 -1050,-1456 512,-77 1829,267 2065,75 103,-83 -24,-179 -88,-234 -278,149 -157,167 -528,155 -487,-25 -2079,-479 -1989,438 38,380 362,796 589,1098 -277,-385 -1057,-1377 -198,-1620 443,-126 1209,61 1690,125 669,90 -271,27 -402,10 -274,-35 -1717,-307 -1461,347 164,420 1424,1209 1843,1558 238,198 1508,1277 1050,1596 -429,299 -1537,285 -1521,1033l9 108c83,343 -155,-210 111,-498 431,-348 1266,-488 1470,-735 326,-394 -1285,-1657 -1583,-1865 -258,-180 -2037,-1256 -1175,-1586 460,-177 1550,186 1835,80 148,-55 -211,-60 -279,-69 -496,-63 -2176,-495 -1958,512 73,340 362,711 563,993 -291,-393 -1029,-1349 -219,-1619 646,-216 1517,296 2091,14 261,-125 189,132 11,183 -342,99 -1130,-70 -1496,-111 -815,-59 -965,264 -327,798 686,574 1367,893 2050,1567 187,185 978,950 748,1281 -158,229 -1154,353 245,430 209,12 600,15 772,97 101,88 188,394 304,550 122,165 842,1133 1073,938l39 -52z"/>
  <ellipse class="fil2" transform="matrix(0.967997 0.250962 -0.250962 0.967997 24362.5 13483.2)" rx="3925" ry="2545"/>
  <path class="fil2" d="M12808 20869c-653,1683 833,2414 1482,1585 389,-496 302,-826 1024,-369 663,353 292,-1374 -973,-1348l-163 3c-354,28 -426,117 -714,257 355,-461 1180,-433 1676,-237 617,271 894,654 1325,1139 232,260 586,772 711,1097 240,624 709,1279 1461,1214 221,-20 610,-180 617,-436 10,-375 -610,506 -1294,-202 -404,-473 -422,-1069 -131,-1606 203,-374 810,-849 1249,-571 313,198 -183,266 636,303 352,15 480,76 792,215 102,46 108,50 199,-87 244,-367 -11,-1130 594,-858 154,69 320,151 468,229l55 31c948,508 760,59 471,986 -119,458 -81,734 194,1121 479,552 1372,312 1220,-685 -4,-27 -98,-896 -153,-446 -39,318 373,1128 -282,1318 -1069,238 -1228,-1178 -633,-1806 145,-153 290,-114 495,-116 1059,-12 1684,-467 1974,-1479 126,-441 310,-624 30,-1111 -218,-380 -802,-758 -1186,-977 -496,-283 -1323,-425 -1662,148 -199,337 -28,601 325,714 439,140 711,190 794,738 -301,-982 -1050,-424 -1230,-1057 -134,-469 444,-807 874,-829 586,-30 1086,347 1628,561 621,246 731,143 1317,631 329,274 401,296 696,-110 385,-529 271,-1032 -73,-1542 -253,-352 424,8 39,-317 -183,-155 -824,-457 -844,-631 -26,-227 265,-311 95,-781 -41,-111 -58,-186 -82,-301 -89,-486 -302,-1149 -876,-1235 -383,-58 -529,198 -412,551 261,922 -408,1236 -1220,1217 -314,-7 -480,-12 -800,15 -523,44 -429,-165 -616,-596 -354,-765 -628,-163 -1135,-647 -59,-57 -116,-114 -176,-171 -457,-394 -817,-568 -1435,-449 -701,134 -1341,-44 -1948,586 -427,444 -388,1079 -262,848 183,-338 267,-541 658,-709 993,-427 1849,722 1130,283 -545,-301 -1232,-314 -1494,338 -171,425 35,641 -105,1128 -115,400 61,236 -515,438 -257,89 -1296,421 -885,836 148,150 -163,-100 72,-358 430,-397 992,-424 1516,-578l68 -27c127,-114 216,-704 304,-869l63 -99c276,-338 454,224 484,447 16,131 77,551 20,647 -80,133 -337,194 -482,195 -600,3 -600,-102 -1253,122 -196,67 -678,220 -533,516 95,195 132,151 222,431 196,610 441,1228 1148,1379 378,62 828,196 1067,522 -51,77 -248,-71 -377,24 314,172 340,44 5,37 -290,-6 -1171,499 -371,8 308,-189 273,-97 582,-131 -233,-293 -532,-362 -886,-435 -816,-151 -905,-729 -1233,-1311 -69,-124 -109,-176 -222,-261 -334,-209 -678,-389 -200,-780 107,-87 231,-160 349,-230 409,-230 201,-182 -165,-286 -257,-73 -355,-103 -547,-290 -305,-296 -1152,604 -1357,848 -329,391 -615,404 -866,667 -508,533 194,1023 123,1399 -81,427 -447,554 -354,1131 31,191 -37,287 -107,461z"/>
  <path class="fil3" d="M26455 19108c1181,930 2248,1322 3756,1165 1306,-57 1757,878 2041,884 74,1 870,-474 993,-579 548,-471 676,-1132 238,-1724 -336,-455 299,-213 524,-35 267,210 566,725 583,1 37,-1577 -2347,-2231 -3003,-714 -143,330 -191,829 127,1074 -207,-345 -269,-568 -132,-980 532,-1592 3076,-888 2915,622 -64,596 -476,-310 -1105,-295 -469,11 75,334 218,632 417,873 -608,1674 -845,1559 69,-89 565,-461 435,-640 -89,-124 -981,554 -1717,-378 -562,-712 -386,-1726 82,-2440 363,-555 489,-745 377,-1449 -141,-739 -856,-832 -1284,-1493l-32 -50c-494,-830 -166,-838 -1278,-1052 -1601,-309 -2044,673 -2226,676 -311,6 -152,-921 -864,-787 -532,100 108,848 -292,809 -549,-53 327,438 -146,603 -727,253 -1145,10 -1235,1063 -107,1242 894,2691 1798,3466l72 62z"/>
  <path class="fil3" d="M33613 16447c371,-379 639,-752 1014,-1132 882,-894 746,-1690 378,-2766 -231,-674 -844,-567 -1424,-720 -897,-237 -2290,-988 -3166,-623 -107,45 -499,312 -144,176 595,-227 1246,-80 1681,384 647,691 -851,849 -784,2012 22,383 7,680 -500,691 -670,15 -1046,-603 -1625,183 -204,278 -261,518 -273,857 5,557 459,1184 1047,1022 236,-65 419,-351 91,-434 -252,-64 -510,-130 -518,-471 57,-791 1737,-431 1427,716l-20 74c-344,1073 -1999,792 -1342,1390 936,852 2774,-193 3565,-827 209,-168 403,-343 593,-532z"/>
  <path class="fil3" d="M30458 19805c-432,-113 -649,-46 -984,262 -196,180 -209,109 -347,-133 -320,-563 -810,-1084 -1524,-946 -598,115 -930,695 -654,1267 224,465 -152,1 -210,-245 -170,-707 444,-1186 1094,-1279 241,-34 775,-29 312,-343 -646,-438 -1706,-349 -2130,393 -339,591 -203,1620 4,2233 525,1549 2750,1017 2702,-733 245,1157 -1423,2666 -2869,1265 -266,-259 -228,-116 -153,181 75,291 221,1010 409,1197 275,275 1051,317 1446,367 764,97 1137,-182 1659,-712 349,-362 979,-350 1309,-1045 252,-533 -29,-696 115,-1154 98,-312 177,-389 -179,-575z"/>
  <path class="fil4" d="M-1768 21671c464,-457 632,-1419 824,-2023 15,-46 21,-66 44,-106 115,-126 344,-246 534,-455 73,-85 817,-983 809,-1025 -6,-28 -98,-252 -121,-334 -173,-619 -446,-967 -948,-1352 -983,-643 -1408,-118 -1970,-482 -651,-423 -1173,-1160 -2111,-994 -473,84 -1001,547 -766,1038 225,471 884,-9 712,373l-36 59c-136,221 613,-433 -42,-630 -585,-175 417,-1019 1209,-109 736,847 310,2099 -801,2441 -208,64 -620,97 -745,229l-69 93c-292,491 -373,506 -796,825 -187,142 13,287 145,462 241,323 383,597 -126,768 -293,98 -603,31 -852,100 9,32 514,202 589,238 760,358 1210,911 1747,1510 578,645 982,571 1707,172 396,-218 738,-485 1063,-798z"/>
  <path class="fil4" d="M2858 22221c-67,-262 -181,-1127 155,-1253 157,-59 -44,-625 -67,-776 -30,-197 -7,-723 -96,-842 -14,-19 -110,-92 32,-81 199,15 131,455 148,651 159,1834 2208,1589 2134,391 -33,-542 -507,-739 -993,-559 -404,150 -181,-212 -211,-299 -245,354 -179,846 158,579 850,-672 1245,839 278,1022 -1105,210 -1619,-1709 -97,-2383 538,-238 918,-173 1473,-111 186,21 859,22 1017,-68 257,-146 278,-542 238,-799 -63,-285 45,147 -17,408 -160,545 -383,447 -895,464 -696,23 -1105,-226 -1849,121 -1452,678 -993,2517 88,2376 990,-130 650,-1647 -175,-1082 -120,82 -272,232 -344,-8 -21,-71 20,-497 75,-252 68,301 682,-387 1106,252 536,807 -734,1818 -1578,880 -606,-674 -232,-1586 -365,-1744 -16,-19 -244,-79 -361,-174 -288,-309 25,-828 -640,-615 -751,241 -1193,109 -1717,-488 -418,-477 -786,-462 -385,191 251,409 72,1298 80,1789 2,115 10,220 19,334 115,1144 389,2206 925,3227 321,611 270,1041 185,1678 -50,377 165,-19 321,-195 493,-555 730,-735 1280,-1190 716,-594 311,-674 78,-1444z"/>
  <path class="fil4" d="M3287 20314c-112,-466 -273,-1032 -490,-1448 -228,-435 -49,-406 241,-739 766,-883 789,-2344 -214,-3015 -753,-504 -2187,-245 -2338,777 -80,539 309,785 619,121 -134,87 -435,468 -542,116 -156,-510 398,-976 758,-1106 1017,-365 2240,351 2133,1731 -53,684 -527,1415 -1181,1280 -647,-134 -471,-50 -1070,-16 -847,50 -1243,-437 -1713,-1173 -286,-449 -504,-398 -919,-226 -568,260 -674,165 -1250,-49 -58,-21 -1260,-428 -803,3 539,509 961,1017 902,1890 -47,684 -353,1014 -698,1480 -269,363 -222,742 -287,1223 -59,439 -136,874 -215,1307 -118,641 80,462 407,905 120,162 359,697 578,508 387,-333 82,-398 480,-129 256,173 730,-73 997,-144 846,-225 1179,-136 1971,-49 101,10 563,16 619,64 177,155 16,918 279,292 410,-977 961,-1020 1378,-1748 90,-158 178,-317 268,-474 344,-596 240,-705 90,-1381z"/>
  <path class="fil4" d="M35875 2356c-1023,-1101 -1969,-291 -2625,-913 -401,-357 -247,29 -373,221 -81,122 -973,561 -1214,735 -732,526 -333,99 -597,-276 -293,-415 -1371,-60 -1734,186 -930,629 -1155,1987 56,2470 308,122 888,580 1166,520 -789,-486 -2123,-1594 -968,-2401 1114,-778 465,1375 1792,1618 760,139 1093,-815 1704,-269 497,443 86,1230 -401,1577 -690,493 -2355,587 -422,713 690,45 1017,334 1860,266 451,-37 717,-157 1017,-458 208,-241 190,-427 -183,-268 -287,103 -1219,423 -1292,-54 -66,-437 278,-815 -26,-1533 -146,-344 146,126 211,381 48,187 106,1134 396,525 399,-839 -253,-1875 -201,-2008 75,-194 663,144 930,112 131,-16 1017,-311 1123,-444 177,-221 -76,-522 -219,-700z"/>
  <path class="fil4" d="M34143 830c-328,-464 -231,-826 -172,-1296 46,-365 -201,-587 -404,-929 -185,-312 -350,-630 -514,-948 -241,-472 -322,-259 -856,-385 -196,-47 -700,-275 -796,-46 -169,404 142,297 -363,318 -324,13 -618,403 -820,579 -641,559 -988,664 -1749,994 -96,43 -516,265 -593,261 -243,-13 -511,-584 -409,-52 160,830 -314,1127 -295,1801 4,146 10,291 15,437 30,804 509,654 968,1232 356,496 354,666 584,1162 407,881 1719,1345 2574,1671 1154,439 -131,-390 1383,-815 66,-18 891,-267 788,-31 -99,230 -1159,199 -1246,893 -9,72 -37,563 132,481 543,-261 857,545 2063,-196 518,-331 716,-885 876,-1456 113,-404 184,-1306 -410,-1360 -151,-14 205,107 318,346 9,20 96,308 41,109 -60,-220 -340,-458 -166,-359 650,371 73,2019 -351,2452 -522,500 -1451,874 -2028,253 -172,-184 240,-512 511,-153 219,290 420,344 796,230 362,-110 646,-344 785,-698 97,-318 68,-582 198,-958 204,-590 263,-1107 -568,-1026 -802,78 -2741,936 -3353,672 -485,-208 -299,-998 462,-1135 354,-64 1017,-15 1451,-48 1126,-87 1560,-290 2671,196 118,52 716,319 782,236 115,-145 -245,-519 -352,-604 -684,-543 -756,-449 -111,-800 109,-60 177,-86 219,-202 -200,-77 -789,-98 -1122,-193 -418,-118 -676,-288 -939,-633z"/>
  <path class="fil3" d="M29889 19558c1181,930 2248,1323 3755,1165 1307,-57 1757,879 2042,884 73,2 870,-473 992,-578 549,-472 676,-1132 239,-1724 -337,-456 299,-214 524,-36 267,210 566,725 583,1 37,-1577 -2348,-2231 -3004,-713 -142,330 -191,829 127,1073 -207,-344 -268,-568 -131,-979 532,-1593 3075,-888 2914,622 -63,595 -475,-310 -1104,-296 -469,11 75,334 217,632 418,873 -608,1674 -844,1559 68,-89 565,-461 435,-640 -90,-123 -981,554 -1717,-378 -563,-712 -387,-1725 81,-2440 364,-555 490,-745 378,-1449 -141,-738 -857,-832 -1285,-1493l-32 -49c-494,-831 -165,-839 -1277,-1053 -1602,-308 -2045,673 -2226,677 -311,6 -152,-922 -865,-788 -531,100 108,848 -291,809 -549,-53 327,439 -146,603 -727,253 -1145,10 -1236,1063 -106,1242 894,2691 1799,3467l72 61z"/>
 </g>
</svg>
