<?xml version="1.0" encoding="UTF-8"?>
<!DOCTYPE svg PUBLIC "-//W3C//DTD SVG 1.1//EN" "http://www.w3.org/Graphics/SVG/1.1/DTD/svg11.dtd">
<!-- Creator: CorelDRAW X7 -->
<svg xmlns="http://www.w3.org/2000/svg" xml:space="preserve" width="414mm" height="256mm" version="1.1" style="shape-rendering:geometricPrecision; text-rendering:geometricPrecision; image-rendering:optimizeQuality; fill-rule:evenodd; clip-rule:evenodd"
viewBox="0 0 41400 25600"
 xmlns:xlink="http://www.w3.org/1999/xlink">
 <defs>
  <style type="text/css">
   <![CDATA[
    .fil0 {fill:none}
    .fil2 {fill:#059EDC}
    .fil1 {fill:#4EDECD}
   ]]>
  </style>
   <clipPath id="id0">
    <rect x="23394" y="7250" width="7297" height="12991"/>
   </clipPath>
 </defs>
 <g id="Capa_x0020_1">
  <metadata id="CorelCorpID_0Corel-Layer"/>
  <path class="fil0" d="M30101 13613c27,17 248,147 253,152"/>
  <path class="fil0" d="M30101 13613c27,17 248,147 253,152"/>
  <path class="fil0" d="M30101 13613c27,17 248,147 253,152"/>
  <path class="fil0" d="M30101 13613c27,17 248,147 253,152"/>
  <path class="fil0" d="M30101 13613c27,17 248,147 253,152"/>
  <path class="fil0" d="M30101 13613c27,17 248,147 253,152"/>
  <path class="fil0" d="M30101 13613c27,17 248,147 253,152"/>
  <path class="fil0" d="M30101 13613c27,17 248,147 253,152"/>
  <path class="fil0" d="M30101 13613c27,17 248,147 253,152"/>
  <path class="fil0" d="M30101 13613c27,17 248,147 253,152"/>
  <path class="fil0" d="M30101 13613c27,17 248,147 253,152"/>
  <path class="fil0" d="M30101 13613c27,17 248,147 253,152"/>
  <path class="fil0" d="M30101 13613c27,17 248,147 253,152"/>
  <path class="fil0" d="M30101 13613c27,17 248,147 253,152"/>
  <path class="fil0" d="M30101 13613c27,17 248,147 253,152"/>
  <path class="fil0" d="M30101 13613c27,17 248,147 253,152"/>
  <path class="fil0" d="M30101 13613c27,17 248,147 253,152"/>
  <path class="fil0" d="M30101 13613c27,17 248,147 253,152"/>
  <path class="fil0" d="M30101 13613c27,17 248,147 253,152"/>
  <path class="fil0" d="M30101 13613c27,17 248,147 253,152"/>
  <path class="fil0" d="M30101 13613c27,17 248,147 253,152"/>
  <path class="fil0" d="M30101 13613c27,17 248,147 253,152"/>
  <path class="fil0" d="M30101 13613c27,17 248,147 253,152"/>
  <path class="fil0" d="M30101 13613c27,17 248,147 253,152"/>
  <path class="fil0" d="M30101 13613c27,17 248,147 253,152"/>
  <path class="fil0" d="M30101 13613c27,17 248,147 253,152"/>
  <path class="fil0" d="M30101 13613c27,17 248,147 253,152"/>
  <path class="fil0" d="M30101 13613c27,17 248,147 253,152"/>
  <path class="fil0" d="M30101 13613c27,17 248,147 253,152"/>
  <path class="fil0" d="M30101 13613c27,17 248,147 253,152"/>
  <path class="fil0" d="M30101 13613c27,17 248,147 253,152"/>
  <path class="fil0" d="M30101 13613c27,17 248,147 253,152"/>
  <path class="fil0" d="M30101 13613c27,17 248,147 253,152"/>
  <path class="fil0" d="M30101 13613c27,17 248,147 253,152"/>
  <path class="fil0" d="M30101 13613c27,17 248,147 253,152"/>
  <path class="fil0" d="M30101 13613c27,17 248,147 253,152"/>
  <path class="fil0" d="M30101 13613c27,17 248,147 253,152"/>
  <path class="fil0" d="M30101 13613c27,17 248,147 253,152"/>
  <path class="fil0" d="M30101 13613c27,17 248,147 253,152"/>
  <path class="fil0" d="M30101 13613c27,17 248,147 253,152"/>
  <path class="fil0" d="M30101 13613c27,17 248,147 253,152"/>
  <path class="fil0" d="M30101 13613c27,17 248,147 253,152"/>
  <path class="fil0" d="M30101 13613c27,17 248,147 253,152"/>
  <path class="fil0" d="M30101 13613c27,17 248,147 253,152"/>
  <path class="fil0" d="M30101 13613c27,17 248,147 253,152"/>
  <path class="fil0" d="M30101 13613c27,17 248,147 253,152"/>
  <path class="fil0" d="M30101 13613c27,17 248,147 253,152"/>
  <path class="fil0" d="M26131 6555c27,17 248,148 254,153"/>
  <path class="fil0" d="M38555 10010c27,17 248,148 254,153"/>
  <path class="fil0" d="M30101 12473c27,17 248,147 253,152"/>
  <path class="fil0" d="M30591 13613c27,17 248,147 253,152"/>
  <path class="fil0" d="M34438 12216c27,17 248,147 254,152"/>
  <path class="fil0" d="M33923 10819c28,17 249,147 254,152"/>
  <rect class="fil1" x="-13" y="-29" width="41425" height="25657"/>
  <path class="fil2" d="M-3 25629l41426 0 0 -10734c-3826,0 -5636,311 -9230,1668 -1997,754 -3950,1661 -5977,2418 -960,359 -3638,1463 -3733,-430 -98,-1927 2670,-3570 -1824,-3633 -3659,-49 -4712,-123 -8227,1083 -1937,681 -4095,1660 -6049,2208 -4211,1183 -2850,-2145 -4982,-3034 -490,-205 -862,-243 -1388,-228 -127,1122 -16,2573 -16,3746 0,2312 0,4624 0,6936z"/>
  <g style="clip-path:url(#id0)">
   <image x="23394" y="7250" width="7297" height="12991" xlink:href="fondofinal4_Images\fondofinal4_ImgID1.png"/>
  </g>
 </g>
</svg>
