<?xml version="1.0" encoding="UTF-8"?>
<!DOCTYPE svg PUBLIC "-//W3C//DTD SVG 1.1//EN" "http://www.w3.org/Graphics/SVG/1.1/DTD/svg11.dtd">
<!-- Creator: CorelDRAW X7 -->
<svg xmlns="http://www.w3.org/2000/svg" xml:space="preserve" width="800mm" height="360mm" version="1.1" style="shape-rendering:geometricPrecision; text-rendering:geometricPrecision; image-rendering:optimizeQuality; fill-rule:evenodd; clip-rule:evenodd"
viewBox="0 0 80000 36000"
 xmlns:xlink="http://www.w3.org/1999/xlink">
 <defs>
  <style type="text/css">
   <![CDATA[
    .str0 {stroke:#E63312;stroke-width:20}
    .str1 {stroke:white;stroke-width:20}
    .fil3 {fill:none}
    .fil10 {fill:#FEFEFE}
    .fil0 {fill:#57A695}
    .fil9 {fill:#00B5C5}
    .fil2 {fill:#12BABD}
    .fil5 {fill:#190A42}
    .fil4 {fill:#1A0B43}
    .fil1 {fill:#CCCCFF}
    .fil8 {fill:#E63312}
    .fil11 {fill:#FFC50C}
    .fil6 {fill:white}
    .fil7 {fill:white;fill-rule:nonzero}
   ]]>
  </style>
 </defs>
 <g id="Capa_x0020_1">
  <metadata id="CorelCorpID_0Corel-Layer"/>
  <polygon class="fil0" points="500,-2000 79000,-2000 79000,33000 500,33000 "/>
  <polygon class="fil1" points="500,-2000 79000,-2000 79000,33000 500,33000 "/>
  <polygon class="fil2" points="78917,36685 78917,-4234 -309,-4234 -309,36685 "/>
  <path class="fil3" d="M78220 7304c-1289,1063 -1569,1710 -3116,2842 -1305,955 -2184,2398 -3271,3014 -1747,990 -2392,3453 -2194,3462 2998,141 618,1017 -1230,1017 -214,0 -1782,-75 -1709,373 -15,2 -723,1617 2526,1492 45,-2 -5438,2410 -5321,3055 253,94 2136,1807 2276,2121 1057,2376 -2882,2347 -1469,5191 602,1211 3713,-193 522,1353 -570,276 -3082,391 -3082,1074 0,322 -14,550 -40,702m-361 0c-250,-430 -577,-1320 -862,-1820 -567,-995 -354,-1136 -354,-1288"/>
  <g id="_218173936">
   <path class="fil4" d="M68191 21779c761,-1308 4058,-5104 5484,-5835 93,-48 167,-86 228,-117 221,-410 422,-738 575,-914l0 -2c108,-1020 964,-1859 1924,-1260 1005,628 597,2376 649,3333 39,720 -74,2133 -119,2898 -20,337 -100,1114 -56,1385 -203,1388 -1493,2348 -2881,2145 -333,-49 -641,-160 -914,-320 -103,287 -194,538 -266,739l65 -98c-539,1295 -2026,1907 -3321,1368 -1295,-540 -1907,-2027 -1368,-3322zm7379 -6073c341,47 642,-67 654,-213 -197,8 -101,-8 -354,89 -128,49 -224,90 -300,124z"/>
  </g>
  <path class="fil3" d="M70536 22756c1,-2 6947,-12661 4929,-6444 -74,227 -1051,4238 -1102,4587"/>
  <path class="fil4" d="M71824 20837c411,-1985 1404,-3778 3106,-4938 226,-153 769,-478 1034,-497l144 26c-714,-675 -999,-1735 -641,-2717l30 6c566,-959 1160,-2428 2200,-2902l1124 -58c61,13 120,29 179,48l0 6043c-605,306 -1330,370 -2017,120 -62,-23 -123,-48 -183,-75 142,222 125,324 111,838 -42,1560 -502,2624 -8,4230 -35,1402 -1199,2511 -2602,2477 -1402,-34 -2511,-1199 -2477,-2601z"/>
  <path class="fil3" d="M74363 20899c86,-3519 3144,-5936 4001,-9082 -21,7 -426,1532 -511,1764"/>
  <path class="fil3" d="M77178 12850c77,-921 1035,-1812 1822,-2606"/>
  <path class="fil4" d="M79000 21333c-399,799 -927,1470 -1593,2119 35,142 60,291 74,447 225,2638 -4100,6291 -6703,5483 -484,-150 -1306,-632 -748,-1192l242 5c122,97 168,177 284,161 81,-112 -4,-140 26,-199 -113,26 -218,39 -310,38l-136 -108c-169,-242 -50,-686 173,-1159 -507,-1085 -356,-2299 350,-3289 610,-856 1939,-1722 3161,-2041 738,-1016 1194,-1945 987,-3682 0,-1403 1137,-2540 2540,-2540 631,0 1209,230 1653,612l0 5345z"/>
  <path class="fil3" d="M77347 17916c0,3905 -2464,4900 -4466,7454 -819,1044 -4439,3597 -1638,3296 2364,-253 5875,-5224 3421,-5075 -345,21 -2886,1354 -2004,2393l127 149"/>
  <g id="_218172472">
   <path class="fil4" d="M65801 26359c344,-463 375,-602 907,-891 769,-420 948,-335 1805,-376 -1359,-497 -1349,-312 -2266,-1578l-99 584c-120,-1397 916,-2627 2314,-2747 1398,-119 2628,917 2747,2315l-128 741c-1296,756 -1184,619 -2568,685l795 292c781,384 824,662 1573,975 0,1402 -1138,2540 -2540,2540 -1403,0 -2540,-1138 -2540,-2540z"/>
  </g>
  <path class="fil3" d="M68341 26359c0,-720 338,-2472 337,-2477"/>
  <g id="_218171752">
   <path class="fil4" d="M66465 24175c649,176 1730,455 2215,690l399 262c-638,-708 -1106,-882 -1086,-1710 13,-598 243,-745 604,-1225 1306,-511 2780,133 3291,1440 510,1305 -132,2776 -1435,3289 29,79 62,169 100,270 -832,1129 -2423,1369 -3551,536 -1129,-833 -1369,-2423 -537,-3552zm3986 2739l121 -420c-26,-585 -1173,-1156 -1493,-1367 1268,1407 1004,785 1372,1787z"/>
  </g>
  <path class="fil3" d="M68509 25683c248,-336 559,-948 1014,-1126"/>
  <g id="_218171104">
   <path class="fil4" d="M66986 26221c383,-750 347,-991 1073,-1350 879,-435 1048,-157 2106,131 -588,-570 -625,-518 -1022,-1371l-212 -600 -177 -346 -282 218c354,-1357 1741,-2171 3099,-1817 1357,354 2171,1742 1817,3099 -429,599 -344,687 -983,908 -791,273 -1471,117 -2240,-91l892 863c959,1186 -111,152 684,883l318 -252c-76,1401 -1273,2475 -2674,2399 -1401,-76 -2475,-1273 -2399,-2674z"/>
  </g>
  <path class="fil3" d="M69523 26359c40,-745 1294,-2382 1407,-2815"/>
  <g id="_218170840">
   <path class="fil4" d="M70496 15426c440,-334 969,-703 1557,-697l1384 356c-750,-559 -1359,-1239 -1017,-2219 194,-552 454,-721 887,-1066 1326,-459 2772,244 3231,1570 434,1252 -170,2613 -1356,3146 67,54 144,111 234,174 -349,1358 -1733,2177 -3092,1828 -1358,-349 -2177,-1733 -1828,-3092zm4607 1025c78,-89 133,-172 147,-318 64,-622 -1460,-958 -1813,-1048l988 735c315,266 441,429 678,631z"/>
  </g>
  <path class="fil3" d="M72956 16058c146,-569 592,-1653 1182,-1857"/>
  <g id="_218170504">
   <path class="fil4" d="M70920 15655l789 -409 2002 637c-599,-476 -1753,-1357 -1225,-2281 258,-451 521,-481 1025,-751 1367,-315 2730,537 3046,1904 219,950 -126,1898 -814,2494 -452,1271 -1829,1974 -3133,1577 -1342,-409 -2098,-1829 -1690,-3171zm4598 1453c9,-54 7,-112 -8,-174 -95,-372 -1640,-1000 -1799,-1051 1510,1200 984,1140 1807,1225z"/>
  </g>
  <path class="fil3" d="M73350 16396c55,-182 522,-1021 732,-1070"/>
  <path class="fil4" d="M67102 28828c-24,775 408,941 1002,1440l479 410c-324,-805 -643,-1362 -243,-2219 195,-419 695,-757 1118,-894l788 -135c1398,120 2434,1350 2314,2748 -120,1398 -1350,2434 -2748,2314 505,-112 721,-60 938,-501 -121,-257 -33,-150 -484,-296 -1254,-407 -305,160 -1683,-1017l350 871 -177 1009c-64,163 -157,310 -270,442l-3330 0c-371,-441 -594,-1010 -594,-1632 0,-1403 1137,-2540 2540,-2540z"/>
  <path class="fil3" d="M67102 31368c1498,0 2290,-1462 2927,-1407"/>
  <path class="fil4" d="M71999 28491c36,258 214,301 485,452 1283,719 986,319 1816,1654 80,-1231 432,-1743 1207,-2623 558,-633 223,-338 1439,-600 913,79 1672,632 2054,1396l0 2270c-452,905 -1423,1488 -2491,1395l797 -140c-1332,-260 -2231,-451 -3006,-1698 -76,1159 46,1196 -740,1998 -160,164 -306,295 -449,405l-2772 0c-586,-478 -953,-1211 -935,-2025 30,-1403 1192,-2515 2595,-2484z"/>
  <path class="fil3" d="M71943 31030c1217,27 4781,-1126 4784,-1125"/>
  <g id="_218168944">
   <path class="fil4" d="M71558 29132c455,-272 565,-397 1108,-470l861 7 889 256c-1496,-915 -953,-462 -2016,-1898 595,-1270 2106,-1819 3377,-1224 1271,594 1819,2106 1225,3377 -1237,242 -1418,81 -2586,-255l626 382c642,440 767,665 1451,1033 -334,1362 -1709,2197 -3071,1863 -1363,-334 -2197,-1709 -1864,-3071z"/>
  </g>
  <path class="fil3" d="M74026 29736c156,-639 587,-1445 675,-1632"/>
  <path class="fil4" d="M76304 27365c613,508 1257,1053 1525,1844 240,711 83,653 -227,1476 537,-506 881,-654 1398,-605l0 2920 -2002 0c-13,-66 -21,-138 -24,-220 -17,-401 476,-1692 628,-2095l-583 550c-355,278 -1348,841 -1782,1097 -1371,-295 -2244,-1645 -1950,-3017 295,-1371 1645,-2244 3017,-1950zm392 5635c-2,-4 -3,-9 -5,-13l8 13 -3 0z"/>
  <path class="fil3" d="M75770 29848c2428,522 2674,1797 3167,2120 22,14 43,32 63,51"/>
  <path class="fil4" d="M75989 28047c242,-275 974,-1141 1218,-1300l1212 -495c-1529,-338 -1874,-674 -2656,-1920 0,-1402 1138,-2540 2540,-2540 242,0 476,34 697,97l0 4105c-166,82 -357,167 -581,258l581 129 0 4163c-153,28 -310,43 -471,43 -1403,0 -2540,-1137 -2540,-2540z"/>
  <path class="fil3" d="M78529 28047c0,-1226 -226,-2542 -226,-3715"/>
  <path class="fil4" d="M78706 24064c-245,1298 -32,462 -924,2421 155,-156 833,-782 1218,-1137l0 4045c-544,129 -1135,80 -1679,-180l-220 -746c4,-546 409,-1385 681,-1982 -1560,1566 -810,1101 -2020,1718 -1143,-813 -1411,-2398 -598,-3542 813,-1143 2399,-1410 3542,-597z"/>
  <path class="fil3" d="M77234 26133c213,152 1002,703 1182,789"/>
  <path class="fil4" d="M79000 29594c-1300,-222 -2228,-1414 -2099,-2748l300 571c1100,-918 589,-636 1799,-1034l0 3211zm0 -3302c-494,31 -817,47 -1404,-153 -564,-192 -600,-324 -988,-737 0,-1353 1058,-2459 2392,-2536l0 3426z"/>
  <path class="fil4" d="M63106 28884c241,135 757,396 1103,698 -1,-28 -2,-57 -3,-87 -26,-911 308,-1120 512,-1762 124,-392 -9,-534 297,-831l1264 -683c1383,-237 2696,692 2933,2074 237,1383 -692,2696 -2075,2933l1020 -522 -168 -28 -622 201c-202,-4 -637,-355 -871,-365 0,0 -1325,230 -1325,230 -283,-97 -494,-176 -645,-300 -36,368 5,396 645,300 491,167 727,72 845,423 211,626 -451,1296 -1220,1835l-3682 0c-343,-433 -548,-980 -548,-1576 0,-1402 1137,-2540 2540,-2540z"/>
  <path class="fil3" d="M63106 31424c3718,0 1231,-682 2936,-2119 143,-121 575,-567 666,-582"/>
  <g id="_218166616">
   <path class="fil4" d="M68228 28941c535,272 1092,547 1241,1073l-26 912c248,-405 237,-423 686,-892 408,-427 468,-299 632,-808 1403,0 2540,822 2540,1837 0,1014 -1137,1837 -2540,1837l-539 -256c-771,-480 -800,-1023 -779,-1718l-488 796c-377,471 -433,290 -727,893 -1403,0 -2540,-822 -2540,-1837 0,-1015 1137,-1837 2540,-1837z"/>
  </g>
  <path class="fil3" d="M68228 30778c907,0 1714,285 2533,285"/>
  <path class="fil4" d="M69949 30123c984,820 486,298 1150,1638 664,-1336 171,-819 1153,-1638 1794,0 3248,733 3248,1638 0,495 -434,939 -1121,1239l-2612 0c-328,-278 -162,-219 -668,-1239 -507,1023 -337,962 -665,1239l-2611 0c-687,-300 -1122,-744 -1122,-1239 0,-905 1454,-1638 3248,-1638z"/>
  <path class="fil3" d="M69949 31761c768,0 1535,0 2303,0"/>
  <path class="fil4" d="M73513 33000c1267,-702 446,-371 2595,-588l-755 -154c-1803,-475 -705,-404 -1782,-427 -69,-1401 1011,-2593 2412,-2662 1402,-69 2593,1011 2662,2412l-505 450c-496,257 -1408,319 -2032,381 2022,415 1206,183 2482,588l-5077 0z"/>
  <path class="fil3" d="M76052 33000c0,-315 65,-1123 56,-1294"/>
  <path class="fil4" d="M75885 33000c-139,-49 -303,-166 -1241,-510 95,-1399 1307,-2457 2706,-2361 652,44 1229,330 1650,765l0 1918c-1052,-39 -663,-37 -2250,188l-865 0z"/>
  <path class="fil3" d="M77214 33000c-17,-157 -38,-308 -36,-337"/>
  <path class="fil3" d="M78214 5889c8,-17 242,-744 241,-759"/>
  <path class="fil4" d="M79000 20713c-999,-342 -1717,-1289 -1717,-2403 1056,-659 673,-492 1717,-728l0 3131zm0 -6664l0 3133c-1038,-235 -664,-73 -1717,-730 0,-1115 718,-2061 1717,-2403z"/>
  <path class="fil4" d="M79000 24710c-999,-342 -1717,-1289 -1717,-2404l1717 -190 0 2594zm0 -5370l0 2593 -1717 -190c0,-1115 718,-2061 1717,-2403z"/>
  <path class="fil4" d="M77959 13131c706,-169 819,-200 1041,-242l0 2293c-631,-462 -1041,-1209 -1041,-2051zm1041 -3160l0 2553c-160,-27 -310,-62 -442,-106l-656 -356c0,-867 435,-1633 1098,-2091z"/>
  <path class="fil4" d="M73051 33879l6149 -7838 0 -3507c-3493,1731 -5657,4763 -5312,8081l1394 -2039c2291,1112 3189,1604 3918,1892l0 6217 -5537 0c-396,-882 -612,-1826 -612,-2806z"/>
  <path class="fil4" d="M77283 24951c330,-668 1038,-1922 1717,-2267l0 4671c-999,-342 -1717,-1289 -1717,-2404zm1717 -7427l0 4531c-555,-380 -884,-910 -1288,-1603 -123,-210 -199,-354 -316,-566 0,-1073 664,-1990 1604,-2362z"/>
  <path class="fil4" d="M77453 18423l1031 -767 516 43 0 3005c-891,-378 -1524,-1251 -1547,-2281zm1547 -3638l0 2443c-592,-275 -268,-200 -1323,-213 0,-962 535,-1798 1323,-2230z"/>
  <line class="fil3" x1="77572" y1="26415" x2="77572" y2= "26415" />
  <path class="fil4" d="M67215 30967c683,332 1984,983 2422,1579 117,161 198,307 264,454l-5176 0c236,-1160 1261,-2033 2490,-2033zm2989 2033c157,-560 194,-629 828,-1125 556,-434 1173,-734 1812,-1020 1268,0 2319,930 2509,2145l-5149 0z"/>
  <path class="fil4" d="M66742 32443c63,178 106,365 127,557l-3965 0c-467,-191 -278,-123 -1212,-168 0,-1403 1137,-2540 2540,-2540 1270,0 2323,933 2510,2151z"/>
  <path class="fil3" d="M64232 32832c0,54 -6,112 -9,168"/>
  <g id="_218195488">
   <path class="fil4" d="M62083 30387l75 -21c-30,-789 -419,-2386 -119,-3107l425 -639c-820,277 -985,303 -1793,57 -710,-216 -1274,-533 -1943,-762l-61 45c-1024,-959 -1075,-2567 -116,-3590 960,-1023 2567,-1075 3590,-116 501,773 726,1713 802,2625 69,829 -9,1036 -479,1741l729 -246c423,-53 1235,253 1604,420 734,332 1286,668 1808,1278 639,1248 145,2779 -1103,3418 -1249,639 -2779,146 -3419,-1103z"/>
  </g>
  <path class="fil3" d="M64344 29229c-360,-703 -3368,-4586 -3940,-5122"/>
  <g id="_218195056">
   <path class="fil4" d="M61129 23938c354,-625 985,-2188 1451,-2552l920 -431 0 0c876,343 798,194 1326,705 690,666 1055,1395 1383,2278l-5080 0z"/>
  </g>
  <path class="fil3" d="M63669 23938c0,-970 -169,-1903 -169,-2983"/>
  <g id="_218194384">
   <path class="fil4" d="M67585 18086c-361,-458 -420,-396 -458,-991 -56,-856 161,-1019 540,-1905 -1018,1122 -564,622 -2074,1580l935 410c-1397,-131 -2423,-1369 -2292,-2766 130,-1397 1369,-2423 2765,-2292l1096 494c249,1158 -17,1611 -430,2574 1101,-1213 602,-710 1771,-1560l-5 -276c1307,511 1953,1984 1442,3290 -510,1307 -1983,1953 -3290,1442z"/>
  </g>
  <path class="fil3" d="M68509 15720c-351,-137 -1676,-1063 -1744,-1069"/>
  <g id="_218194336">
   <path class="fil4" d="M68950 13110c-68,-1493 25,-1432 939,-2705 -1237,711 -1435,720 -2728,740 -924,-1056 -817,-2660 239,-3584 1055,-924 2660,-817 3584,239 -136,1350 -248,1425 -1095,2605 1421,-816 1121,-704 2571,-968 1014,970 1050,2577 81,3592 -969,1014 -2577,1050 -3591,81z"/>
  </g>
  <path class="fil3" d="M70705 11274c-617,-589 -1077,-1167 -1633,-1801"/>
  <path class="fil3" d="M78866 1874c0,-360 -34,-550 57,-901"/>
  <path class="fil4" d="M59883 33000c-422,-1054 -203,-417 -521,-2364 -321,1960 -96,1307 -520,2364l-1002 0c-942,-372 -1608,-1290 -1608,-2364 0,-1402 1137,-2540 2540,-2540 519,1308 252,481 590,2540 335,-2046 74,-1237 592,-2540 1403,0 2540,1138 2540,2540 0,1074 -667,1992 -1608,2364l-1003 0z"/>
  <path class="fil3" d="M59954 30636c-394,0 -788,0 -1182,0"/>
  <g id="_218193976">
   <path class="fil4" d="M59447 29286l-2499 -632 2603 -220c-932,-212 -82,-10 -2399,-1071l2577 234 2304 1101 -2454 -266 -28 2 2422 550 -2526 302z"/>
  </g>
  <path class="fil3" d="M59447 29286c0,-692 63,-1056 282,-1689"/>
  <g id="_218192728">
   <path class="fil4" d="M57308 26190l874 -2420 -160 2707c540,-1457 132,-884 1098,-1802l-236 1853 -644 1752c-371,-1157 -292,-557 -218,-1803l-836 2254 122 -2541z"/>
  </g>
  <path class="fil3" d="M57308 26190c308,18 1574,338 1576,338"/>
  <g id="_218192344">
   <path class="fil4" d="M59897 26978l1648 -1956 -1042 2400c920,-1074 386,-636 1593,-1323l-848 1723 -1213 1494c120,-1341 -45,-712 468,-1894l-1618 1889 1012 -2333z"/>
  </g>
  <path class="fil3" d="M59897 26978c259,135 1333,839 1351,844"/>
  <path class="fil4" d="M61554 33000c-737,-638 -1207,-1232 -1699,-2242 -1142,-2340 -1226,-5067 -252,-7476 495,-1224 1076,-2679 2300,-3168 -193,-336 -370,-663 -489,-945 -642,-1533 -754,-3189 706,-4304 1051,-802 2804,-726 4239,-618 147,-346 337,-696 576,-1129 19,-34 37,-67 55,-100 -255,-135 -500,-323 -762,-596 -1720,-1791 -803,-4469 1921,-4531 1875,-43 1728,811 3260,1619 231,122 723,356 869,562l115 317c-664,120 -1594,-5 -2219,-231 -274,-100 -1187,-598 -1350,-607l-8 10 22 14c-275,34 -1382,178 -1264,638 105,406 419,563 808,551 750,-24 1405,401 1632,1122 401,1271 -1049,3282 -907,3893 139,605 -367,1324 -930,1568 -408,177 -2086,168 -3267,288 462,794 1098,1501 1540,2297 731,1320 748,2773 -559,3688 -670,469 -1279,727 -1926,785 -92,265 -177,531 -241,770 -313,1166 65,3389 1169,4029l-2490 3796 -849 0zm6523 -19654c65,21 136,37 214,45l91 1c-106,-15 -208,-30 -305,-46z"/>
  <path class="fil3" d="M63500 31328c-1926,-1263 -2717,-4625 -1914,-6905 1478,-4199 1035,-1120 3152,-2532 1035,-689 -3549,-4453 -1314,-5746 617,-357 3204,-239 4129,-239 -94,-1465 2011,-3828 829,-3828 -2093,0 -3125,-3431 480,-3326 593,18 1137,865 2434,1197 228,58 942,271 1097,440"/>
  <g id="_218191480">
   <path class="fil4" d="M66795 25954c-537,308 -1235,682 -1870,692l-1256 -231c-1246,-1357 -991,-1001 -1438,-2691l4564 2230z"/>
  </g>
  <path class="fil3" d="M64513 24839c-195,398 -623,1190 -844,1576"/>
  <g id="_218191552">
   <path class="fil4" d="M56226 27090c8,-29 13,-58 15,-89 -27,4 -53,26 -78,58 21,10 42,21 63,31zm-523 -285c-61,-77 -136,-150 -230,-218l-43 19c75,66 168,133 273,199zm3625 1621c222,120 391,236 481,348l145 286 -177 275c-261,245 -1194,411 -1539,459 -1801,249 -5491,315 -5750,-2068 -208,-1915 566,-4066 2771,-4238 1886,-148 3248,979 4702,982l-633 3956z"/>
  </g>
  <path class="fil3" d="M59560 26978c-2507,-401 -5066,-3317 -5348,548 -74,1023 5162,1534 5742,1534"/>
  <g id="_218190256">
   <path class="fil4" d="M56427 24193c10,-1631 -483,-3215 -419,-4991 85,-2375 1262,-4616 3817,-4986 660,-96 647,-46 1086,379 -265,905 -50,62 -372,685 -220,426 217,-250 -299,472 -745,1043 -895,1670 -556,2895 452,1627 1313,3041 1770,4812l-5027 734z"/>
  </g>
  <path class="fil3" d="M58941 23826c-427,-2925 -2811,-6858 1209,-9001 359,-192 435,-79 761,-230"/>
  <g id="_218190904">
   <path class="fil4" d="M60696 16073l136 274c-17,-94 -34,-189 -53,-283l-83 9zm83 -9c-324,-1685 -802,-3444 246,-5047 328,-502 1201,-1343 1873,-1143l320 161c225,447 179,329 198,827 50,1265 377,1575 1164,2537 814,996 670,732 1161,2081l-4962 584z"/>
  </g>
  <path class="fil3" d="M63218 15777c-93,-792 -2269,-3472 -159,-5582l159 -160"/>
  <g id="_218189872">
   <path class="fil4" d="M60765 25475c-1587,-541 -3760,-1519 -5410,-912 -522,192 -1318,742 -1843,778l-707 -108c-62,-1046 -81,-739 348,-1676 1553,-3400 5435,-3246 8579,-3069l-967 4987z"/>
  </g>
  <path class="fil3" d="M61248 22981c-2554,-495 -5183,-1068 -7092,965 -369,393 -941,919 -1351,1287"/>
  <g id="_218189992">
   <path class="fil4" d="M61080 31713c-1370,-176 -2646,-436 -3983,-628 -975,-140 -2606,531 -3638,753 -312,67 -1330,258 -1586,33l-137 -221c45,-318 98,-548 269,-816 684,-1076 2413,-2648 3541,-3188 1322,-632 3973,-809 5534,-1013l0 5080z"/>
  </g>
  <path class="fil3" d="M61080 29173c-5309,0 -3996,-589 -8969,2359 -68,40 -288,125 -375,118"/>
  <path class="fil4" d="M55416 33000c69,-222 94,-286 312,-579 1108,-1489 3479,-2344 5239,-2692l0 3271 -5551 0z"/>
  <path class="fil3" d="M60967 32269c-1321,0 -2826,234 -4145,731"/>
  <g id="_218189104">
   <path class="fil4" d="M66941 12503c293,-946 -2948,-3573 -3563,-4182 -467,-461 -303,-282 -610,-987 558,-510 384,-508 1067,-612 1726,-263 4211,605 5650,1557 1078,712 1512,1236 2169,2328l-4713 1896z"/>
  </g>
  <path class="fil3" d="M69297 11555c-815,-2026 -4470,-3909 -6529,-4221"/>
  <g id="_218188264">
   <path class="fil4" d="M62986 14369c68,-377 114,-879 292,-1219 136,83 243,196 380,164 11,-274 -566,-568 -743,-706 -810,-628 -687,-432 -1626,-685 -463,-125 -301,-67 -660,-480l0 -1c71,-381 35,-435 227,-723 853,-1277 2953,-1324 4280,-951 2305,649 2578,2585 2930,4601l-5080 0z"/>
  </g>
  <path class="fil3" d="M65526 14369c0,-2005 45,-2664 -2200,-3274 -1313,-357 -2207,307 -2697,348"/>
  <g id="_218188600">
   <path class="fil4" d="M61654 20018c-1099,-934 -3750,-2362 -5067,-3100 -653,-365 -4149,-2245 -4478,-2639l-204 -360c262,-359 162,-338 539,-477 2372,-878 9539,1097 11888,2259l-2678 4317z"/>
  </g>
  <path class="fil3" d="M62993 17859c-1883,-1168 -8805,-3940 -11088,-3940"/>
  <g id="_218187472">
   <path class="fil4" d="M58886 23061c-912,-1027 -3620,-1696 -4916,-2264 -565,-248 -368,-157 -883,-686l262 -655c373,-507 1775,-965 2383,-1109 1901,-449 3790,-395 5627,277l-2473 4437z"/>
  </g>
  <path class="fil3" d="M60123 20843c-1700,-948 -5157,-1215 -7036,-732"/>
  <g id="_218187544">
   <path class="fil4" d="M60044 22796l255 213c-13,-112 -31,-226 -50,-340l-205 127zm205 -127c-131,-788 -355,-1628 -58,-2399l269 -497 458 -355c564,-281 1563,-164 2157,-24 780,182 716,165 1292,734l-4118 2541z"/>
  </g>
  <path class="fil3" d="M62205 21462c-102,-166 -1663,-1670 -1745,-1689"/>
  <g id="_218187256">
   <path class="fil4" d="M53181 26085c-804,-901 -3086,-3438 -4243,-3652 0,0 -1142,-71 -1142,-71l-135 -863c130,-636 1035,-1147 1587,-1316 2237,-682 5215,842 7121,1947l-3188 3955z"/>
  </g>
  <path class="fil3" d="M54775 24107c-1466,-1182 -5412,-4257 -6979,-1745"/>
  <g id="_218186680">
   <path class="fil4" d="M59043 16147c-374,-812 -751,-1348 -1135,-2094 -836,-1625 -588,-3244 -49,-4913 210,-652 479,-1216 1008,-1671 431,-370 352,-255 1030,-417l1 0c396,692 352,420 403,1039 38,456 22,548 147,995 126,450 539,2349 907,2516 612,277 1425,1182 1873,1665l-4185 2880z"/>
  </g>
  <path class="fil3" d="M61136 14707c-1468,-2133 -2051,-1683 -1965,-5051 30,-1213 242,-1439 726,-2604"/>
  <g id="_218186368">
   <path class="fil4" d="M61135 9993l187 613c-7,-206 -23,-415 -43,-623l-144 10zm144 -10c-107,-1092 -331,-2203 12,-3273 185,-576 191,-434 745,-896l720 109c631,205 1965,1454 2469,1965 750,761 603,566 977,1739l-4923 356z"/>
  </g>
  <path class="fil3" d="M63669 9810c-17,-235 -1287,-2482 -1633,-3996"/>
  <path class="fil3" d="M77346 1142c-1227,-55 -4702,-2026 -8592,-2026 -194,0 -388,0 -582,0"/>
  <g id="_218186272">
   <path class="fil4" d="M68727 9473c1265,-814 459,-403 2540,-957 2082,554 1276,143 2540,957l-5080 0z"/>
  </g>
  <path class="fil3" d="M71267 9473c0,-319 0,-638 0,-957"/>
  <g id="_218185696">
   <path class="fil4" d="M68826 9216l366 120c87,-99 170,-198 252,-297l-618 177zm618 -177c167,-202 329,-404 500,-594 488,-541 107,-22 648,-886 623,-584 577,-646 1428,-618 999,32 1030,189 1689,874l-4265 1224z"/>
  </g>
  <path class="fil3" d="M71267 8516c-70,-246 -489,-893 -675,-957"/>
  <path class="fil3" d="M71605 -96c-394,0 -2081,-194 -2026,506"/>
  <g id="_218185000">
   <path class="fil4" d="M54296 26724c-750,-91 -2669,-330 -3127,-494l-221 -117c299,-149 138,-126 752,-197 809,-94 2398,-125 3300,-137l-704 945z"/>
  </g>
  <path class="fil3" d="M54648 26252c-379,-19 -3373,-173 -3700,-139"/>
  <path class="fil4" d="M55616 33000c-1415,-430 -2618,-1120 -3807,-2165 -548,-481 -1782,-1761 -1959,-2440l-28 -798 0 0c931,-260 684,-279 1574,-93 1948,407 3750,1160 5785,762l-78 4734 -1487 0z"/>
  <path class="fil3" d="M57139 30805c-2608,-42 -5244,-1650 -7317,-3208"/>
  <g id="_218184136">
   <path class="fil4" d="M52683 30579c-738,-1631 -1514,-2963 -2546,-4422 -342,-485 -170,-202 -484,-924l0 0c451,-565 304,-598 955,-708 2040,-344 4729,1696 6147,3017l-4072 3037z"/>
  </g>
  <path class="fil3" d="M54719 29060c-1023,-1372 -3172,-3827 -5066,-3827"/>
  <path class="fil4" d="M50491 33000c-164,-60 -291,-119 -368,-174l-470 -501c210,-674 76,-592 528,-996 1250,-1117 4066,-1902 5720,-2219l0 3890 -5410 0z"/>
  <path class="fil3" d="M55901 31650c-1763,0 -4507,227 -6248,675"/>
  <g id="_218183392">
   <path class="fil4" d="M54319 21512c82,409 -12,283 149,450 19,-116 -8,-270 -66,-448l-83 -2zm83 2c-271,-828 -1234,-2176 -1574,-2638 -151,-205 -100,-118 -188,-301l48 -90c-582,-151 -1217,-358 -1404,-1024l-55 -669 1 -4 667 -309c639,-135 248,263 697,-258l563 -40c1866,39 4514,1908 5537,3417 568,838 554,1056 703,2039l-4995 -123z"/>
  </g>
  <path class="fil3" d="M56858 21574c30,-1213 -2944,-4274 -4217,-4221 -706,29 -844,-355 -1412,-563"/>
  <g id="_218183128">
   <path class="fil4" d="M64246 11552l45 -149c-30,-21 -61,-40 -93,-57l48 206zm-48 -206c-571,-315 -1479,-218 -2022,-621l-590 -690c-107,-924 -193,-1270 220,-2125 347,-718 624,-916 1285,-1305l1107 4741z"/>
  </g>
  <path class="fil3" d="M63669 9079c-549,128 -1466,743 -2083,956"/>
  <g id="_218182984">
   <path class="fil4" d="M61586 12575c-448,-1316 -217,-484 -506,-2540 289,-2055 58,-1224 506,-2540l0 5080z"/>
  </g>
  <path class="fil3" d="M61586 10035c-169,0 -338,0 -506,0"/>
  <polygon class="fil5" points="79089,8942 61532,2087 35678,36685 76746,36685 79089,33550 "/>
  <polygon class="fil6" points="-357,1976 42162,36769 34966,36769 -357,7113 "/>
  <path class="fil7" d="M467 2882l38636 31618 -31 0 -38572 -31809 -33 -13 0 204zm33007 31618l-32974 -27193 0 -26 33006 27219 -32 0z"/>
  <rect class="fil8 str0" x="48500" y="8500" width="7500" height="5000"/>
  <rect class="fil9" transform="matrix(0.804565 0.971007 -0.452531 0.980774 54839 6142.53)" width="6500" height="7500"/>
  <rect class="fil10 str1" transform="matrix(1.34103 2.21852 -1.12247 1.44944 53928.6 10162.1)" width="3500" height="3500"/>
  <polygon class="fil5" points="-260,8215 34095,36930 37838,36930 -260,5525 "/>
  <rect class="fil10 str1" x="47500" y="11140" width="4466" height="500"/>
  <rect class="fil10 str1" x="48028" y="9801" width="4466" height="500"/>
  <rect class="fil10 str1" x="48674" y="8500" width="4466" height="500"/>
  <rect class="fil10 str1" x="46519" y="12709" width="4466" height="500"/>
  <polygon class="fil6" points="-1307,7283 33956,36685 -1307,36685 "/>
  <polygon class="fil11" points="-940,10424 38500,25851 35571,25800 -974,11353 -974,10441 "/>
 </g>
</svg>
