<?xml version="1.0" encoding="UTF-8"?>
<!DOCTYPE svg PUBLIC "-//W3C//DTD SVG 1.1//EN" "http://www.w3.org/Graphics/SVG/1.1/DTD/svg11.dtd">
<!-- Creator: CorelDRAW X7 -->
<svg xmlns="http://www.w3.org/2000/svg" xml:space="preserve" width="414mm" height="257mm" version="1.1" style="shape-rendering:geometricPrecision; text-rendering:geometricPrecision; image-rendering:optimizeQuality; fill-rule:evenodd; clip-rule:evenodd"
viewBox="0 0 41400 25700"
 xmlns:xlink="http://www.w3.org/1999/xlink">
 <defs>
  <style type="text/css">
   <![CDATA[
    .fil0 {fill:none}
    .fil2 {fill:#059EDC}
    .fil1 {fill:#4EDECD}
   ]]>
  </style>
 </defs>
 <g id="Capa_x0020_1">
  <metadata id="CorelCorpID_0Corel-Layer"/>
  <path class="fil0" d="M30101 13663c27,17 248,147 253,152"/>
  <path class="fil0" d="M30101 13663c27,17 248,147 253,152"/>
  <path class="fil0" d="M30101 13663c27,17 248,147 253,152"/>
  <path class="fil0" d="M30101 13663c27,17 248,147 253,152"/>
  <path class="fil0" d="M30101 13663c27,17 248,147 253,152"/>
  <path class="fil0" d="M30101 13663c27,17 248,147 253,152"/>
  <path class="fil0" d="M30101 13663c27,17 248,147 253,152"/>
  <path class="fil0" d="M30101 13663c27,17 248,147 253,152"/>
  <path class="fil0" d="M30101 13663c27,17 248,147 253,152"/>
  <path class="fil0" d="M30101 13663c27,17 248,147 253,152"/>
  <path class="fil0" d="M30101 13663c27,17 248,147 253,152"/>
  <path class="fil0" d="M30101 13663c27,17 248,147 253,152"/>
  <path class="fil0" d="M30101 13663c27,17 248,147 253,152"/>
  <path class="fil0" d="M30101 13663c27,17 248,147 253,152"/>
  <path class="fil0" d="M30101 13663c27,17 248,147 253,152"/>
  <path class="fil0" d="M30101 13663c27,17 248,147 253,152"/>
  <path class="fil0" d="M30101 13663c27,17 248,147 253,152"/>
  <path class="fil0" d="M30101 13663c27,17 248,147 253,152"/>
  <path class="fil0" d="M30101 13663c27,17 248,147 253,152"/>
  <path class="fil0" d="M30101 13663c27,17 248,147 253,152"/>
  <path class="fil0" d="M30101 13663c27,17 248,147 253,152"/>
  <path class="fil0" d="M30101 13663c27,17 248,147 253,152"/>
  <path class="fil0" d="M30101 13663c27,17 248,147 253,152"/>
  <path class="fil0" d="M30101 13663c27,17 248,147 253,152"/>
  <path class="fil0" d="M30101 13663c27,17 248,147 253,152"/>
  <path class="fil0" d="M30101 13663c27,17 248,147 253,152"/>
  <path class="fil0" d="M30101 13663c27,17 248,147 253,152"/>
  <path class="fil0" d="M30101 13663c27,17 248,147 253,152"/>
  <path class="fil0" d="M30101 13663c27,17 248,147 253,152"/>
  <path class="fil0" d="M30101 13663c27,17 248,147 253,152"/>
  <path class="fil0" d="M30101 13663c27,17 248,147 253,152"/>
  <path class="fil0" d="M30101 13663c27,17 248,147 253,152"/>
  <path class="fil0" d="M30101 13663c27,17 248,147 253,152"/>
  <path class="fil0" d="M30101 13663c27,17 248,147 253,152"/>
  <path class="fil0" d="M30101 13663c27,17 248,147 253,152"/>
  <path class="fil0" d="M30101 13663c27,17 248,147 253,152"/>
  <path class="fil0" d="M30101 13663c27,17 248,147 253,152"/>
  <path class="fil0" d="M30101 13663c27,17 248,147 253,152"/>
  <path class="fil0" d="M30101 13663c27,17 248,147 253,152"/>
  <path class="fil0" d="M30101 13663c27,17 248,147 253,152"/>
  <path class="fil0" d="M30101 13663c27,17 248,147 253,152"/>
  <path class="fil0" d="M30101 13663c27,17 248,147 253,152"/>
  <path class="fil0" d="M30101 13663c27,17 248,147 253,152"/>
  <path class="fil0" d="M30101 13663c27,17 248,147 253,152"/>
  <path class="fil0" d="M30101 13663c27,17 248,147 253,152"/>
  <path class="fil0" d="M30101 13663c27,17 248,147 253,152"/>
  <path class="fil0" d="M30101 13663c27,17 248,147 253,152"/>
  <path class="fil0" d="M26131 6605c27,17 248,148 254,153"/>
  <path class="fil0" d="M38555 10060c27,17 248,148 254,153"/>
  <path class="fil0" d="M30101 12523c27,17 248,147 253,152"/>
  <path class="fil0" d="M30591 13663c27,17 248,147 253,152"/>
  <path class="fil0" d="M34438 12266c27,17 248,147 254,152"/>
  <path class="fil0" d="M33923 10869c28,17 249,147 254,152"/>
  <rect class="fil1" x="-31" y="22" width="41462" height="25657"/>
  <path class="fil2" d="M41468 25678l-41536 0c0,-4157 9,-8313 2,-12470 -1,-520 -192,-692 -192,-753 399,5 -453,-575 -480,-593 -341,-225 -1618,-961 -1139,-1645 106,-152 408,-267 275,-105 -64,78 183,-84 281,-120 522,-191 1435,-261 2030,-397 581,-133 2108,-601 2589,-557 189,17 295,60 466,154 601,377 -327,479 722,808 557,174 1894,556 2401,209 760,-519 778,-2252 2251,-1652 1014,450 747,496 1764,-12 126,-64 253,-125 380,-187 1019,-451 -92,669 -312,866 -851,692 -817,577 -1611,-116 -1120,-977 -1461,172 -1503,1400 -20,591 113,-543 125,-615 437,-2492 1651,21 2323,-44 192,-18 655,-374 840,-503 390,-285 801,-790 1070,-1241 104,-174 133,-488 220,-290 136,308 -384,829 33,987 335,126 -439,137 -458,-54 -30,-299 -172,295 -417,522 -73,68 -559,455 -158,329 92,-29 817,-482 602,-379 -372,179 315,-457 595,-240 167,129 -142,326 258,204 1012,-308 1359,1067 2372,1044 820,-18 97,1148 -558,628 -696,-554 -1023,-2207 -2079,-1286 724,-534 1046,-148 1477,615 304,539 550,1184 1141,1206l207 8c741,31 684,-588 1240,-931 418,-213 648,-31 1138,-230 680,-294 1153,-761 1769,-70 276,311 104,75 148,-139 270,-114 440,182 1031,-150 1209,-680 1498,813 2207,1130 264,118 551,-30 782,-190 433,-333 512,-1058 971,-1311 124,-69 -96,-161 -464,343 -661,908 24,-423 388,-626 1014,-567 761,2489 1145,2549 305,48 381,-762 911,-660 459,89 786,339 1106,666 348,375 585,749 1136,751 360,6 1340,104 1451,-385 38,-167 -231,-461 -334,-612 -244,-363 -1148,-1372 -1131,-1692 31,-605 1968,617 2212,690 308,93 1255,-90 1631,-119 937,-70 2140,-123 1741,1224 -172,581 -22,611 383,212 497,-527 315,-1089 539,-1839 148,-495 689,-2158 1004,-2448 719,-660 1399,1695 1734,2272 229,394 306,358 549,626 198,218 -366,310 451,396 215,23 346,127 522,267 524,426 1038,1381 1663,1397l96 3c0,4385 0,8770 0,13155z"/>
 </g>
</svg>
