<?xml version="1.0" encoding="utf-8"?>
<!-- Generator: Adobe Illustrator 21.1.0, SVG Export Plug-In . SVG Version: 6.00 Build 0)  -->
<svg version="1.1" id="Capa_1" xmlns="http://www.w3.org/2000/svg" xmlns:xlink="http://www.w3.org/1999/xlink" x="0px" y="0px"
	 viewBox="0 0 359 63" style="enable-background:new 0 0 359 63;" xml:space="preserve">
<style type="text/css">
	.st0{fill:#9ED0BD;}
	.st1{fill:#141027;}
</style>
<g>
	<path class="st0" d="M120.3,45.8L94,19.1c-0.3-0.3-0.8-0.3-1.2,0l-26,26.4l-26-26.4c-0.3-0.3-0.8-0.3-1.2,0l-26.4,27
		c-0.3,0.3-0.3,0.9,0,1.2s0.8,0.3,1.2,0l26-26.4l26,26.4c0.2,0.2,0.4,0.2,0.6,0.2s0.4-0.1,0.6-0.2l26-26.4l26,26.4
		c0.2,0.2,0.4,0.2,0.6,0.2H136c0.5,0,0.8-0.4,0.8-0.8V1.2c0-0.5-0.4-0.8-0.8-0.8H1.3c-0.5,0-0.8,0.4-0.8,0.8v60.6
		c0,0.5,0.4,0.8,0.8,0.8h134.4c0.5,0,0.8-0.4,0.8-0.8s-0.4-0.8-0.8-0.8H2.2V2h132.7v43.8H120.3z"/>
	<path class="st1" d="M104,46.1l-26.6-27c-0.3-0.3-0.8-0.3-1.2,0l-9.4,9.5l-9.4-9.5c-0.3-0.3-0.8-0.3-1.2,0l-26.4,27
		c-0.3,0.3-0.3,0.9,0,1.2c0.2,0.2,0.4,0.2,0.6,0.2s0.4-0.1,0.6-0.2l26-26.4l9.4,9.5l0,0l0,0c0.2,0.2,0.4,0.2,0.6,0.2
		s0.4-0.1,0.6-0.2l9.4-9.5l26,26.4c0.2,0.2,0.4,0.2,0.6,0.2s0.4-0.1,0.6-0.2C104.3,46.9,104.3,46.4,104,46.1z"/>
</g>
</svg>
