<?xml version="1.0" encoding="UTF-8"?>
<!DOCTYPE svg PUBLIC "-//W3C//DTD SVG 1.1//EN" "http://www.w3.org/Graphics/SVG/1.1/DTD/svg11.dtd">
<!-- Creator: CorelDRAW X7 -->
<svg xmlns="http://www.w3.org/2000/svg" xml:space="preserve" width="700mm" height="310mm" version="1.1" style="shape-rendering:geometricPrecision; text-rendering:geometricPrecision; image-rendering:optimizeQuality; fill-rule:evenodd; clip-rule:evenodd"
viewBox="0 0 70000 31000"
 xmlns:xlink="http://www.w3.org/1999/xlink">
 <defs>
   <clipPath id="id0">
    <rect x="74" y="781" width="67826" height="32752"/>
   </clipPath>
   <clipPath id="id1">
    <path d="M30187 14684l8387 0 0 1576 -8387 0 0 -1576z"/>
   </clipPath>
   <clipPath id="id2">
    <path d="M24671 12714l18857 0 0 8387 -18857 0 0 -8387z"/>
   </clipPath>
   <clipPath id="id3">
    <path d="M30187 17611l8387 0 0 1576 -8387 0 0 -1576z"/>
   </clipPath>
   <clipPath id="id4">
    <path d="M54830 5015l4608 -1726 780 3738c-628,252 -1261,514 -1890,761 -368,76 -2274,-19 -2789,-40 -7,0 -470,-1663 -511,-1786 -118,-347 -143,-591 -198,-947z"/>
   </clipPath>
   <clipPath id="id5">
    <path d="M13228 22113c373,3 856,297 1033,624 392,739 328,1019 484,1778 59,283 314,509 579,609 223,85 -99,-105 75,-363 240,-355 559,-505 800,-996 112,-227 300,-609 622,-443 430,222 -299,1102 -532,1284 -158,123 -883,471 -614,700 185,156 809,424 749,712 -20,97 -94,247 -126,400 -119,567 -114,1179 -819,1296 -509,63 -1327,184 -1816,162 640,34 1394,-203 2098,-169 404,67 1506,814 1716,1170 101,171 133,333 160,527 17,229 1,499 -2,732 0,234 0,468 0,702 -933,0 -1874,-3 -2806,7 -688,7 -871,307 -948,956 -15,119 0,720 -71,739 -225,-21 -2205,-1297 -2613,-1502 -1020,-515 -815,-579 -1304,-1504 -144,-230 -196,36 -267,205 -249,552 -469,1086 -1165,1071 -821,-18 -845,-869 -1533,-575l-134 66c-444,257 -507,398 -230,-158 500,-866 514,-534 465,-1543 -21,-416 152,-393 173,-544 50,-370 -1252,-108 -1016,-395 247,-301 1098,-1105 1411,-1321 233,-160 47,-185 -195,-345 -682,-454 -1188,-1006 -973,-1874 163,-470 505,-454 642,-931 -23,-149 -263,-529 -355,-694 266,150 1163,801 1401,748 422,-94 366,-1112 1505,-1136 1178,-25 2423,-3 3606,5z"/>
   </clipPath>
   <clipPath id="id6">
    <path d="M60295 20219c599,3 1375,347 1659,728 631,861 528,1186 779,2071 221,546 1134,858 1049,704 -105,-192 -128,-220 2,-417 386,-414 898,-589 1286,-1161 180,-265 481,-709 999,-515 691,258 -480,1284 -855,1495 -300,148 -1364,507 -980,857 317,288 1431,548 1191,1030 -172,346 -246,750 -419,1029 -398,641 -1360,673 -2206,755 -624,61 -1247,88 -1876,59 1288,63 2177,-199 3329,-226 734,-17 2136,889 2646,1272 100,75 145,118 225,202 163,200 213,389 257,615 27,266 1,581 -3,853 0,272 0,545 0,818 -1499,0 -3011,-4 -4510,7 -1106,9 -1399,358 -1524,1114 -23,140 0,840 -114,862 -362,-24 -3543,-1511 -4199,-1751 -1641,-599 -1311,-674 -2097,-1752 -230,-269 -314,42 -429,239 -400,643 -754,1266 -1873,1248 -1318,-21 -1357,-1013 -2463,-670l-215 76c-714,301 -814,465 -370,-183 803,-1009 826,-622 747,-1798 -33,-486 245,-459 278,-635 80,-431 -2011,-126 -1632,-460 397,-351 1765,-1288 2267,-1539 375,-187 76,-216 -312,-403 -1098,-529 -1910,-1172 -1564,-2183 262,-548 812,-530 1030,-1085 -36,-174 -422,-617 -569,-809 427,175 1869,933 2251,872 678,-110 589,-1297 2419,-1325 1893,-28 3895,-3 5796,6z"/>
   </clipPath>
 </defs>
 <g id="Capa_x0020_1">
  <metadata id="CorelCorpID_0Corel-Layer"/>
  <g style="clip-path:url(#id0)">
   <image id="mural.jpg" x="74" y="781" width="67826" height="32752" xlink:href="mural1_Images\mural1_ImgID1.png"/>
  </g>
  <g style="clip-path:url(#id1)">
   <image id="mural.jpg_0" x="30187" y="14684" width="8387" height="1576" xlink:href="mural1_Images\mural1_ImgID2.png"/>
  </g>
  <g style="clip-path:url(#id2)">
   <image id="mural.jpg_1" x="24671" y="12714" width="18856" height="8387" xlink:href="mural1_Images\mural1_ImgID3.png"/>
  </g>
  <g style="clip-path:url(#id3)">
   <image id="mural.jpg_2" x="30187" y="17611" width="8387" height="1576" xlink:href="mural1_Images\mural1_ImgID4.png"/>
  </g>
  <g style="clip-path:url(#id4)">
   <image id="mural.jpg_3" transform="matrix(4.70029 -1.75994 2.67876 12.8286 54830.1 5014.77)" x="0" y="0" width="980" height="291" xlink:href="mural1_Images\mural1_ImgID5.png"/>
  </g>
  <g style="clip-path:url(#id5)">
   <image id="mural.jpg_4" x="6209" y="22114" width="11426" height="8724" xlink:href="mural1_Images\mural1_ImgID6.png"/>
  </g>
  <g style="clip-path:url(#id6)">
   <image id="mural.jpg_5" x="49014" y="20220" width="18365" height="10168" xlink:href="mural1_Images\mural1_ImgID7.png"/>
  </g>
 </g>
</svg>
