<?xml version="1.0" encoding="UTF-8"?>
<!DOCTYPE svg PUBLIC "-//W3C//DTD SVG 1.1//EN" "http://www.w3.org/Graphics/SVG/1.1/DTD/svg11.dtd">
<!-- Creator: CorelDRAW X7 -->
<svg xmlns="http://www.w3.org/2000/svg" xml:space="preserve" width="414mm" height="257mm" version="1.1" style="shape-rendering:geometricPrecision; text-rendering:geometricPrecision; image-rendering:optimizeQuality; fill-rule:evenodd; clip-rule:evenodd"
viewBox="0 0 41400 25700"
 xmlns:xlink="http://www.w3.org/1999/xlink">
 <defs>
  <style type="text/css">
   <![CDATA[
    .fil1 {fill:#37BFBB}
    .fil2 {fill:#F7AECB}
    .fil0 {fill:#FEDF60}
   ]]>
  </style>
   <clipPath id="id0">
    <rect x="2" y="22" width="41396" height="25657"/>
   </clipPath>
 </defs>
 <g id="Capa_x0020_1">
  <metadata id="CorelCorpID_0Corel-Layer"/>
  <g style="clip-path:url(#id0)">
   <image id="mural.jpg" x="2" y="22" width="41396" height="25657" xlink:href="Sin título-3_Images\Sin título-3_ImgID1.png"/>
  </g>
  <path class="fil0" d="M27240 15568c392,-49 1854,-199 1312,-894 -256,-299 -454,-450 -809,-616 -818,-386 904,-913 1149,-1015 577,-239 239,-67 209,49 -32,122 1517,-502 235,-924 -603,-199 -554,-225 84,-340 502,-91 1290,-49 1178,-856 -95,-680 -793,-775 -640,-477 96,188 5,149 -197,91 -1506,-429 -2101,-447 -789,-1871 440,-477 2453,-2127 424,-1666 -907,207 -822,178 -355,-479 164,-229 1088,-1171 142,-898 -604,174 -2431,1218 -2873,1084 -290,-136 -616,-137 -931,-166 -737,-68 -1414,477 -1995,862 -411,275 -1005,699 -1029,-158 -16,-556 571,-1995 225,-2293 -578,-498 -2276,2329 -3113,1713 -151,-111 -436,-471 -556,-633 -485,-676 -1184,-1675 -1270,-54 -7,503 -11,902 -567,1109 -436,162 -328,-157 -514,-399 -174,-227 -681,-814 -932,-921 -737,-315 -781,951 -940,1228 -405,701 -2920,1083 -3792,1281 -835,185 -1487,290 -2313,573 53,202 360,177 578,229 625,149 -864,54 -892,53 -426,-13 -1564,-29 -1885,-217 -238,-140 -198,-49 -275,-304 -71,-234 -640,456 -446,653 283,289 2419,336 2183,643 -144,188 -2543,363 -2872,310 135,-61 271,-61 -28,-69 -1473,-43 -420,440 194,635 411,122 2826,661 2764,1222 -68,620 -2897,1708 -3388,2343 -117,152 -271,619 44,595 257,-19 441,-113 714,-162 649,-118 1754,-599 2442,-830 736,-242 4298,-1114 4869,-745 535,346 -1456,1814 -1703,2020 -278,231 -813,636 -1036,879 115,87 179,68 332,42 456,-78 1388,-452 1889,-621 2071,-688 3232,-647 5244,180 1647,678 3404,987 5142,1330 798,158 1398,274 2183,492 761,211 3013,861 1472,-673 -292,-291 -892,-777 -293,-1048 449,-204 942,-227 1425,-287z"/>
  <path class="fil1" d="M15696 17124c178,-200 405,-486 268,-763 -80,-160 56,-218 -357,-390 -607,-253 -1163,-214 -1521,-897 -237,-453 -492,-689 -934,-941 -894,-446 -2521,-415 -3162,416 -387,502 -70,713 484,625 163,-25 611,-76 613,-294 1,-74 -71,11 -152,60 -759,468 -1571,23 -492,-668 1049,-672 2839,-407 3438,770l49 94c357,758 726,644 1367,877 352,128 -185,214 -346,262 -476,143 -2674,918 -3015,801 -509,-174 796,-2263 -1497,-1278 -550,237 -1649,821 -2152,299 -461,-479 -687,-414 -1296,-216 -823,302 -977,191 -1811,-57 -85,-25 -1827,-497 -1165,4 394,300 1188,956 1227,1485 76,1027 -3626,1033 -3125,2111 277,488 504,421 415,1121 -117,916 -30,1068 579,1666 577,565 228,876 614,1157 199,144 276,193 448,368 358,433 628,980 1147,347 56,-68 154,97 213,166 686,776 1254,659 2219,643 587,-11 2027,123 2468,-153 312,-196 391,-819 835,-685 274,82 79,1114 343,331 276,-818 1001,-1196 1656,-1699l165 -127c489,-383 934,-674 1427,-1029 495,-357 1392,-1079 601,-1654 -629,-456 -1876,-252 -854,-1475 377,-452 887,-822 1303,-1277z"/>
  <path class="fil1" d="M35090 2001c-325,-350 -1199,395 -1693,275 -106,-26 -839,-277 -875,-173 -64,181 394,460 -524,1017 -551,334 -2032,1103 -1639,1943 429,916 2298,304 2098,1513 -27,161 -61,326 -90,487 -97,525 65,378 333,741 98,133 294,571 473,416 318,-273 67,-326 394,-106 210,142 598,-60 816,-118 694,-184 966,-111 1615,-40 83,9 461,13 507,53 145,127 13,752 229,239 335,-800 787,-835 1129,-1432 73,-129 146,-259 219,-388 500,-932 -271,-1116 165,-2120 201,-462 599,-689 890,-1121 286,-424 567,-585 152,-1119 -299,-385 -1117,-1070 -1573,-1270 -538,-235 -1329,-231 -1684,321 -267,416 -18,715 312,205 149,-230 -263,376 -369,127 -135,-314 503,-680 777,-742 912,-208 1714,617 2323,1195 122,116 482,492 306,681 -173,186 -965,-422 -1120,-550 -647,-534 -1064,-827 -1762,-142 -322,316 -705,731 -1205,500 -203,-94 -95,-184 -204,-392z"/>
  <path class="fil2" d="M35761 21083c655,-505 1128,-1004 1790,-1511 1559,-1193 1319,-2258 668,-3694 -407,-899 -1491,-757 -2515,-961 -1584,-316 -4045,-1319 -5592,-831 -190,60 -882,415 -256,235 1052,-304 2201,-108 2970,512 1143,922 -1504,1134 -1385,2686 39,511 13,909 -882,924 -1185,19 -1849,-806 -2871,244 -361,370 -462,691 -482,1144 7,744 809,1581 1849,1364 417,-86 741,-469 161,-579 -446,-85 -901,-175 -916,-629 102,-1056 3069,-576 2522,955l-35 99c-608,1433 -3532,1059 -2371,1857 1654,1137 4900,-258 6297,-1105 370,-224 712,-458 1048,-710z"/>
 </g>
</svg>
